<?xml version="1.0" standalone="no"?>
<!DOCTYPE svg PUBLIC "-//W3C//DTD SVG 1.1//EN" "http://www.w3.org/Graphics/SVG/1.1/DTD/svg11.dtd" >
<svg xmlns="http://www.w3.org/2000/svg">
<metadata>Generated by IcoMoon</metadata>
<defs>
<font id="supportpoint-icons" horiz-adv-x="1024">
<font-face units-per-em="1024" ascent="960" descent="-64" />
<missing-glyph horiz-adv-x="1024" />
<glyph unicode="&#x20;" horiz-adv-x="512" d="" />
<glyph unicode="&#xe600;" glyph-name="expand" d="M1024 950.857h-416l160-160-192-192 96-96 192 192 160-160zM1024-73.143v416l-160-160-192 192-96-96 192-192-160-160zM0-73.143h416l-160 160 192 192-96 96-192-192-160 160zM0 950.857v-416l160 160 192-192 96 96-192 192 160 160z" />
<glyph unicode="&#xe601;" glyph-name="unordered-list" d="M385 886.857h640v-128h-640v128zM385 502.857h640v-128h-640v128zM385 118.857h640v-128h-640v128zM1 822.857c0 70.692 57.308 128 128 128 70.691 0 128-57.308 128-128s-57.309-128-128-128c-70.692 0-128 57.309-128 128zM1 438.857c0 70.693 57.308 128 128 128 70.691 0 128-57.308 128-128s-57.309-128-128-128c-70.692 0-128 57.309-128 128zM1 54.857c0 70.693 57.308 128 128 128 70.691 0 128-57.307 128-128 0-70.691-57.309-128-128-128s-128 57.309-128 128z" />
<glyph unicode="&#xe602;" glyph-name="unreadable" d="M797.924 392.535v83.452c0 11.371-4.229 21.164-12.332 29.381-8.34 8.348-18.021 12.456-29.505 12.456h-501.031c-11.484 0-21.166-4.108-29.504-12.456-8.093-8.217-12.334-18.011-12.334-29.381v-83.452c0-11.36 4.242-21.164 12.334-29.38 8.339-8.338 18.020-12.458 29.504-12.458h501.031c11.483 0 21.165 4.12 29.505 12.458 8.103 8.216 12.332 18.020 12.332 29.38zM1006.766 434.261c0-90.938-22.487-174.738-67.223-251.653-44.871-76.667-105.579-137.498-182.247-182.246-76.916-44.871-160.726-67.367-251.664-67.367-91.062 0-174.871 22.496-251.54 67.367-76.915 44.747-137.623 105.578-182.483 182.245-44.87 76.915-67.233 160.715-67.233 251.654s22.363 174.749 67.233 251.653c44.86 76.68 105.568 137.5 182.483 182.248 76.669 44.87 160.478 67.367 251.54 67.367 90.938 0 174.748-22.497 251.664-67.367 76.668-44.748 137.376-105.568 182.247-182.248 44.736-76.905 67.223-160.714 67.223-251.653z" />
<glyph unicode="&#xe603;" glyph-name="unwriteable" d="M817.091 436.91c17.532 0 32.347-6.123 44.698-18.357 12.234-12.234 18.347-27.177 18.347-44.709v-378.334c0-17.532-6.112-32.464-18.347-44.698-12.352-12.234-27.166-18.347-44.698-18.347h-630.557c-17.533 0-32.358 6.112-44.709 18.347-12.235 12.234-18.357 27.166-18.357 44.698v378.334c0 17.532 6.123 32.475 18.357 44.709 12.351 12.234 27.176 18.357 44.709 18.357h21.054v210.094c0 81.18 28.709 150.348 86.351 208 57.525 57.642 126.82 86.352 207.863 86.352 81.063 0 150.348-28.709 207.873-86.352 57.652-57.652 86.352-126.82 86.352-208 0-11.293-4.113-553.849-12.468-562.077-8.354-8.48-18.113-12.595-29.533-12.595h-41.992c-11.41 0-21.287 4.114-29.641 12.595-8.237 8.228-12.478 550.783-12.478 562.077 0 46.474-16.348 86.118-49.172 118.942-32.939 32.823-72.467 49.298-118.941 49.298-46.464 0-85.992-16.475-118.921-49.298-32.823-32.824-49.182-72.468-49.182-118.942v-210.094h483.392z" />
<glyph unicode="&#xe604;" glyph-name="upload" d="M448 374.857h128v256h192l-256 256-256-256h192v-256zM640 518.857v-98.71l293.066-109.29-421.066-157.018-421.066 157.018 293.066 109.29v98.71l-384-144v-256l512-192 512 192v256l-384 144z" />
<glyph unicode="&#xe605;" glyph-name="user2" d="M622.826 248.121c-22.11 3.518-22.614 64.314-22.614 64.314s64.968 64.316 79.128 150.802c38.090 0 61.618 91.946 23.522 124.296 1.59 34.054 48.96 267.324-190.862 267.324s-192.45-233.27-190.864-267.324c-38.094-32.35-14.57-124.296 23.522-124.296 14.158-86.486 79.128-150.802 79.128-150.802s-0.504-60.796-22.614-64.314c-71.22-11.332-337.172-128.634-337.172-257.264h896c0 128.63-265.952 245.932-337.174 257.264z" />
<glyph unicode="&#xe606;" glyph-name="user" d="M995.305 437.732c0-265.68-215.375-481.055-481.055-481.055s-481.055 215.376-481.055 481.055 215.375 481.055 481.055 481.055 481.055-215.375 481.055-481.055zM515.595 861.262c-232.607 0-421.175-188.566-421.175-421.176s188.568-421.175 421.175-421.175c232.609 0 421.176 188.565 421.176 421.175s-188.567 421.176-421.176 421.176zM870.204 212.939c-81.227 40.927-251.402 115.49-251.402 115.49v79.183c32.37 14.939 42.325 99.102 42.325 99.102 29.879-17.434 37.349 52.784 37.349 52.784 0 61.257-27.89 49.806-27.89 49.806 9.461 21.912 6.973 77.684 6.973 77.684 0 128.986-154.378 131.973-154.378 131.973-157.866 0-161.845-132.781-161.845-132.781 0-30.067 8.216-76.193 8.216-76.193-27.638-2.616-27.638-49.49-27.638-49.49 0-60.508 42.577-58.268 42.577-58.268 0-77.69 38.843-96.362 38.843-96.362v-81.423c-121.981-29.149-216.474-85.725-260.054-115.233 0 0 105.847-182.207 338.755-190.188l22.248-0.217c241.466 7.261 345.921 194.131 345.921 194.131z" />
<glyph unicode="&#xe607;" glyph-name="user-external-tip" d="M700.484 919.912h293.697v-290.321c0 0-34.884 221.679-293.697 290.321z" />
<glyph unicode="&#xe608;" glyph-name="user-internal-tip" d="M22.505 268.941v-293.697h290.321c0 0-221.679 34.884-290.321 293.697z" />
<glyph unicode="&#xe609;" glyph-name="verbatim" d="M580.57 34.408h-131.067l-318.437 720.863h-79.377c-18.46 0-31.699 3.693-39.689 11.080-8.005 7.381-12 16.915-12 28.612 0 11.074 3.995 20.304 12 27.69 7.99 7.381 21.229 11.074 39.689 11.074h290.745c18.46 0 31.686-3.693 39.689-11.074 7.99-7.386 11.999-16.935 11.999-28.615 0-11.077-4.009-20.307-11.999-27.688-8.003-7.387-21.229-11.080-39.689-11.080h-128.296l284.285-643.331h34.149l278.747 643.331h-129.219c-18.461 0-31.699 3.693-39.689 11.080-8.004 7.381-11.999 16.915-11.999 28.612 0 11.074 3.995 20.304 11.999 27.69 7.99 7.381 21.229 11.074 39.689 11.074h291.67c19.064 0 32.448-3.693 40.15-11.074 7.686-7.386 11.538-16.935 11.538-28.615 0-11.077-3.853-20.307-11.538-27.688-7.702-7.387-21.086-11.080-40.15-11.080h-78.457l-314.743-720.861z" />
<glyph unicode="&#xe60a;" glyph-name="workflow" d="M988 822.546v-803.764c0-52.938-42.94-95.912-95.877-95.912h-727.117c-53.001 0-95.877 42.975-95.877 95.912v807.795h139.855v-759.064h635.166v754.031l143.85 1.002zM271.365 826.577h514.404v-128.862h-514.404v128.862zM667.9 826.577v60.345c0 35.327-28.603 63.935-63.894 63.935h-150.883c-35.221 0-63.895-28.608-63.895-63.935v-60.345h58.451v62.14h160.81v-62.14h59.411zM249.373 399.056l79.956 65.93 123.794-134.826 281.705 252.69 72.928-68.928-349.6-360.558z" />
<glyph unicode="&#xe60b;" glyph-name="warning" d="M512 792.133l-344.834-737.276h689.668l-344.834 737.276zM512 950.857v0c22.070 0 44.14-14.882 60.884-44.648l437.072-871.112c33.49-59.532 5-108.24-63.302-108.24h-869.308c-68.304 0-96.79 48.708-63.304 108.24l437.074 871.112c16.744 29.766 38.814 44.648 60.884 44.648zM448 182.857c0 35.346 28.654 64 64 64s64-28.654 64-64c0-35.346-28.654-64-64-64s-64 28.654-64 64zM512 566.857c35.346 0 64-28.654 64-64l-20-192h-88l-20 192c0 35.346 28.654 64 64 64z" />
<glyph unicode="&#xe60c;" glyph-name="power" d="M640 804.269v-135.958c36.206-15.804 69.5-38.408 98.274-67.18 60.442-60.44 93.726-140.8 93.726-226.274s-33.286-165.834-93.726-226.274c-60.44-60.44-140.798-93.726-226.274-93.726s-165.834 33.286-226.274 93.726c-60.44 60.44-93.726 140.8-93.726 226.274s33.286 165.834 93.726 226.274c28.774 28.774 62.068 51.378 98.274 67.182v135.956c-185.048-55.080-320-226.472-320-429.412 0-247.424 200.578-448 448-448 247.424 0 448 200.576 448 448 0 202.94-134.95 374.332-320 429.412zM448 950.857h128v-512h-128z" />
<glyph unicode="&#xe60d;" glyph-name="system-role" d="M996.498 433.791c0-265.68-215.375-481.055-481.055-481.055s-481.055 215.375-481.055 481.055c0 265.678 215.375 481.055 481.055 481.055s481.055-215.376 481.055-481.055zM516.789 857.321c-232.607 0-421.175-188.566-421.175-421.176s188.568-421.173 421.175-421.173c232.609 0 421.176 188.565 421.176 421.173s-188.567 421.176-421.176 421.176zM517.721 48.229c-212.666-1.090-311.502 168.317-311.502 168.317 38.479 26.055 122.764 76.584 230.463 102.319v71.892c0 0-34.295 16.486-34.295 85.080 0 0-37.593-1.979-37.593 51.446 0 0 0 41.385 24.404 43.696 0 0-7.255 40.726-7.255 67.275 0 0 3.513 117.236 142.895 117.236 0 0 136.308-2.638 136.308-116.522 0 0 2.194-49.242-6.16-68.59 0 0 24.624 10.109 24.624-43.976 0 0-6.594-61.998-32.975-46.604 0 0-8.791-74.311-37.371-87.499v-69.913c0 0 150.253-65.833 221.972-101.968-0.002-0.001-90.983-171.046-313.515-172.187zM183.853 220.727c-35.991 56.269-49.161 109.478-49.161 109.478 19.539 8.828 42.319 17.266 67.405 23.259v39.578c0 0-18.88 9.074-18.88 46.833 0 0-20.694-1.090-20.694 28.322 0 0 0 22.78 13.432 24.052 0 0-3.992 22.421-3.992 37.035 0 0 1.935 64.537 78.663 64.537 0 0 75.038-1.452 75.038-64.143 0 0 1.207-27.107-3.389-37.759 0 0 13.557 5.564 13.557-24.207 0 0-3.63-34.131-18.155-25.659 0 0-4.839-40.906-20.571-48.166v-38.483c0 0 40.629-18.53 81.531-37.687 0 0-117.716-37.401-193.007-95.933l-1.777-1.058zM855.244 227.12c-76.836 59.735-196.971 97.905-196.971 97.905 41.743 19.549 83.205 38.459 83.205 38.459v39.275c-16.057 7.411-20.994 49.155-20.994 49.155-14.822-8.647-18.525 26.185-18.525 26.185 0 30.382 13.834 24.703 13.834 24.703-4.69 10.871-3.459 38.534-3.459 38.534 0 63.98 76.578 65.461 76.578 65.461 78.303 0 80.278-65.86 80.278-65.86 0-14.913-4.073-37.795-4.073-37.795 13.707-1.297 13.707-24.546 13.707-24.546 0-30.018-21.117-28.904-21.117-28.904 0-38.535-19.27-47.796-19.27-47.796v-40.391c25.602-6.116 48.852-14.728 68.791-23.737 0 0-13.44-54.301-50.171-111.726l-1.812 1.077z" />
<glyph unicode="&#xe60e;" glyph-name="email-2" d="M49.477 743.388v33.997h925.953v-33.997l-463.431-283.861zM49.477 683.39v-431.979l231.988 159.992 23.999-31.999-255.987-189.989v-47.997h925.953v43.997l-267.987 193.989 31.999 32.999 235.988-162.992v443.979l-463.431-347.983z" />
<glyph unicode="&#xe60f;" glyph-name="table" d="M2 885.857v-896h1024v896h-1024zM386 309.857v192h256v-192h-256zM642 245.857v-192h-256v192h256zM642 757.857v-192h-256v192h256zM322 757.857v-192h-256v192h256zM66 501.857h256v-192h-256v192zM706 501.857h256v-192h-256v192zM706 565.857v192h256v-192h-256zM66 245.857h256v-192h-256v192zM706 53.857v192h256v-192h-256z" />
<glyph unicode="&#xe610;" glyph-name="table-add-column-left" d="M206-73.143h818v1024h-818v-1024zM512-9.143v902h192v-902h-192zM768 886.857h192v-896h-192zM4.5 437.858v177.3l202-177.3-202-177.302z" />
<glyph unicode="&#xe611;" glyph-name="table-add-column-right" d="M821.25 953.107h-818v-1024h818v1024zM515.25 889.107v-902h-192v902h192zM259.25-6.893h-192v896h192zM1022.75 442.106v-177.3l-202 177.3 202 177.302z" />
<glyph unicode="&#xe612;" glyph-name="table-add-row-above" d="M1 744.857v-818h1024v818h-1024zM65 438.857h902v-192h-902v192zM65-9.143v192h896v-192h-896zM512.001 946.357h177.3l-177.3-202-177.302 202z" />
<glyph unicode="&#xe613;" glyph-name="table-add-row-below" d="M1025 132.857v818h-1024v-818h1024zM961 438.857h-902v192h902v-192zM961 886.857v-192h-896v192h896zM513.999-68.643h-177.3l177.3 202 177.302-202z" />
<glyph unicode="&#xe614;" glyph-name="table-cell-merge-right" d="M2 885.857v-896h1024v896h-1024zM642 245.857v-192h-256v192h256zM642 757.857v-192h-256v192h256zM322 757.857v-192h-256v192h256zM66 501.857h901.064v-192h-901.064v192zM706 565.857v192h256v-192h-256zM66 245.857h256v-192h-256v192zM706 53.857v192h256v-192h-256z" />
<glyph unicode="&#xe615;" glyph-name="table-cell-split" d="M2 885.857v-896h1024v896h-1024zM960.929 757.857v-192h-894.929v192h894.929zM66 501.857h408.993v-192h-408.993v192zM561.089 501.857h400.911v-192h-400.911zM66 245.857h894.764v-192h-894.764v192z" />
<glyph unicode="&#xe616;" glyph-name="table-column-delete" d="M1025.75 856.107v-878.5h-1021.5v878.5h1021.5zM634.721 58.935v719.843h-220.492v-719.843h220.492zM936.749 58.935v719.843h-220.492v-719.843h220.492zM332.691 58.935v719.843h-220.492v-719.843h220.492zM414.203 576.179v131.563h-81.576v-131.563h81.576zM716.231 576.179v131.563h-81.576v-131.563h81.576zM414.203 346.179v131.563h-81.576v-131.563h81.576zM716.231 346.179v131.563h-81.576v-131.563h81.576zM414.203 116.179v131.563h-81.576v-131.563h81.576zM716.231 116.179v131.563h-81.576v-131.563h81.576z" />
<glyph unicode="&#xe617;" glyph-name="current-document" d="M791.187 73.67v728.825h-570.385v-728.825h570.385zM791.187 904.873c27.625 0 52-10.156 73.127-30.469 21.124-20.312 31.687-44.281 31.687-71.908v-728.825c0-27.625-10.563-52-31.688-73.127-21.125-21.124-45.501-31.687-73.125-31.687h-570.385c-27.625 0-52.001 10.563-73.127 31.688s-31.688 45.501-31.688 73.125v728.825c0 27.625 10.563 51.595 31.688 71.908s45.5 30.469 73.127 30.469h570.385z" />
<glyph unicode="&#xe618;" glyph-name="table-header-hide" d="M1 724.857v-693h1024v693h-1024zM65 658.857h902v-252h-902v252zM65 95.857v242h896v-242h-896z" />
<glyph unicode="&#xe619;" glyph-name="table-header-show" d="M1 849.857v-818h1024v818h-1024zM65 658.857h902v-252h-902v252zM65 95.857v242h896v-242h-896z" />
<glyph unicode="&#xe61a;" glyph-name="table-row-delete" d="M1024-3.643h-1022v889.5h1022v-889.5zM78 336.857h870v192h-870v-192zM78 73.857h870v192h-870v-192zM78 599.857h870v192h-870v-192zM147.514 528.879h113.5v71.035h-113.5v-71.035zM350.514 528.879h113.5v71.035h-113.5v-71.035zM553.514 528.879h113.5v71.035h-113.5v-71.035zM756.514 528.879h113.5v71.035h-113.5v-71.035zM147.514 265.878h113.5v71.035h-113.5v-71.035zM350.514 265.878h113.5v71.035h-113.5v-71.035zM553.514 265.878h113.5v71.035h-113.5v-71.035zM756.514 265.878h113.5v71.035h-113.5v-71.035z" />
<glyph unicode="&#xe61b;" glyph-name="table-set-width-large" d="M2 885.857v-896h1024v896h-1024zM777.106 817.857v-764h-538.046v764h538.046zM65.5 815.357h103.182l0.5-761.5h-103.182l-0.5 761.5zM853.755 53.857v762h108.245v-762h-108.245zM580.326 437.852v177.3l194.228-177.3-194.228-177.302zM445.313 437.856v-177.3l-198.787 177.3 198.787 177.302z" />
<glyph unicode="&#xe61c;" glyph-name="table-set-width-medium" d="M2 750.85v-823.993h1024v823.993h-1024zM633.093 688.315v-702.601h-244.018v702.601h244.018zM65.5 686.015h232.195l0.5-700.302h-232.195l-0.5 700.302zM724.743-14.287v700.762h237.257v-700.762h-237.257zM501.542 950.857h177.3l-177.3-202-177.301 202z" />
<glyph unicode="&#xe61d;" glyph-name="table-set-width-small" d="M2 885.857v-896h1024v896h-1024zM609.090 817.857v-764h-181.011v764h181.011zM65.5 815.357h259.198l0.5-761.5h-259.198l-0.5 761.5zM706.741 53.857v762h255.259v-762h-255.259zM120.509 437.852v177.3l202-177.3-202-177.302zM913.573 437.856v-177.3l-202 177.3 202 177.302z" />
<glyph unicode="&#xe61e;" glyph-name="task" d="M204.995-73.643h819.505v1025h-819.505v-1025zM910.86 839.716v-798.080h-609.060v798.080h609.060zM395.811 746.706h387.039v-114.011h-387.039v114.011zM395.811 521.684h387.039v-114.011h-387.039v114.011zM395.811 296.662h387.039v-114.012h-387.039v114.012zM214.791 950.857v-391.308h-214.291v391.308h214.291zM73.776 812.843v-135.014h123.013v135.014h-123.013zM94.779 577.551h129.013v-650.694h-129.013v650.694z" />
<glyph unicode="&#xe61f;" glyph-name="taskflow-diagram" d="M864 246.857c-45.16 0-85.92-18.738-115.012-48.83l-431.004 215.502c1.314 8.252 2.016 16.706 2.016 25.328s-0.702 17.076-2.016 25.326l431.004 215.502c29.092-30.090 69.852-48.828 115.012-48.828 88.366 0 160 71.634 160 160s-71.634 160-160 160-160-71.634-160-160c0-8.622 0.704-17.076 2.016-25.326l-431.004-215.504c-29.092 30.090-69.852 48.83-115.012 48.83-88.366 0-160-71.636-160-160 0-88.368 71.634-160 160-160 45.16 0 85.92 18.738 115.012 48.828l431.004-215.502c-1.312-8.25-2.016-16.704-2.016-25.326 0-88.368 71.634-160 160-160s160 71.632 160 160c0 88.364-71.634 160-160 160z" />
<glyph unicode="&#xe620;" glyph-name="task-insert-after" d="M376.995-73.643h647.505v1025h-647.505v-1025zM934.712 839.716v-798.080h-481.23v798.080h481.23zM553.811 746.706h251.039v-114.011h-251.039v114.011zM553.811 521.684h251.039v-114.011h-251.039v114.011zM553.811 296.662h251.039v-114.012h-251.039v114.012zM350.791 951.857v-391.309h-350.291v391.309h350.291zM120.28 813.843v-135.013h201.084v135.013h-201.084zM340.779 948.051h129.013v-1021.194h-129.013v1021.194zM174.514 192.713h-41.885c-5.816 0.001-10.76 2.036-14.834 6.108-4.070 4.072-6.108 9.016-6.108 14.834v90.747h-90.745c-5.82 0-10.764 2.036-14.833 6.108-4.073 4.072-6.109 9.017-6.109 14.833v41.883c0 5.817 2.036 10.762 6.105 14.834 4.073 4.072 9.017 6.107 14.837 6.107h90.745v90.746c0 5.818 2.037 10.764 6.107 14.834 4.074 4.072 9.018 6.109 14.834 6.109h41.885c5.816 0 10.762-2.037 14.831-6.109 4.071-4.070 6.11-9.016 6.107-14.832v-90.747l90.748 0.001c5.819-0.001 10.761-2.037 14.834-6.109s6.109-9.017 6.109-14.833v-41.884c0-5.816-2.039-10.762-6.109-14.832-4.073-4.072-9.015-6.108-14.834-6.11l-90.748 0.002 0.003-90.747c-0.003-5.818-2.039-10.762-6.11-14.834-4.069-4.072-9.014-6.109-14.83-6.109z" />
<glyph unicode="&#xe621;" glyph-name="task-insert-before" d="M376.995-73.643h647.505v1025h-647.505v-1025zM934.712 839.716v-798.080h-481.23v798.080h481.23zM553.811 746.706h251.039v-114.011h-251.039v114.011zM553.811 521.684h251.039v-114.011h-251.039v114.011zM553.811 296.662h251.039v-114.012h-251.039v114.012zM350.791 592.857v-391.309h-350.291v391.309h350.291zM120.28 454.843v-135.013h201.084v135.013h-201.084zM340.779 948.051h129.013v-1021.194h-129.013v1021.194zM174.514 643.713h-41.885c-5.816 0.001-10.76 2.036-14.834 6.108-4.070 4.072-6.108 9.016-6.108 14.834v90.747h-90.745c-5.82 0-10.764 2.036-14.833 6.108-4.073 4.072-6.109 9.017-6.109 14.833v41.883c0 5.817 2.036 10.762 6.105 14.834 4.073 4.072 9.017 6.107 14.837 6.107h90.745v90.747c0 5.818 2.037 10.764 6.107 14.834 4.075 4.072 9.019 6.109 14.835 6.109h41.885c5.816 0 10.762-2.037 14.831-6.109 4.071-4.070 6.11-9.016 6.107-14.832v-90.747l90.748 0.001c5.819-0.001 10.761-2.037 14.834-6.109s6.109-9.017 6.109-14.833v-41.884c0-5.816-2.039-10.762-6.109-14.832-4.073-4.072-9.015-6.108-14.834-6.11l-90.748 0.002 0.003-90.747c-0.003-5.818-2.039-10.762-6.11-14.834-4.070-4.073-9.015-6.11-14.831-6.11z" />
<glyph unicode="&#xe622;" glyph-name="task-type-menupath" d="M566 702.485v248.372l384-384-384-384v253.824c-446.75 10.482-427.588-303.792-313.859-509.824-280.713 303.414-221.101 789.57 313.859 775.628z" />
<glyph unicode="&#xe623;" glyph-name="task-type-screen" d="M955.858 387.65v443.792c0 4.622-1.69 8.623-5.068 12.001s-7.379 5.067-12.001 5.068h-853.445c-4.623 0-8.623-1.69-12.001-5.068s-5.067-7.379-5.068-12.001v-443.792c0-4.622 1.69-8.623 5.068-12s7.379-5.068 12.001-5.068h853.445c4.623 0 8.623 1.69 12.001 5.068s5.067 7.379 5.068 12.001zM1024.133 831.441v-580.341c0-23.471-8.356-43.562-25.069-60.274s-36.805-25.070-60.274-25.070h-290.173c0-13.157 2.845-26.937 8.536-41.339s11.379-27.025 17.069-37.87c5.689-10.846 8.535-18.579 8.535-23.203 0-9.245-3.378-17.247-10.134-24.003s-14.758-10.135-24.003-10.135h-273.103c-9.246 0-17.247 3.378-24.003 10.135s-10.135 14.758-10.135 24.003c0 4.978 2.845 12.802 8.536 23.471s11.379 23.114 17.068 37.338c5.69 14.223 8.536 28.092 8.536 41.604h-290.172c-23.47 0-43.562 8.357-60.274 25.070-16.713 16.711-25.070 36.802-25.070 60.272v580.342c0 23.47 8.357 43.562 25.070 60.274s36.805 25.070 60.274 25.070h853.445c23.47 0 43.562-8.356 60.274-25.070s25.070-36.804 25.070-60.274h-0.003zM240.29 16.216h548.762v-55.288h-548.762v55.288z" />
<glyph unicode="&#xe624;" glyph-name="task-type-shortcut" d="M219.139 793.105h585.528l177.955 149.252h-898.385zM1 896.434l166.474-149.253v-602.75l-166.474-172.215zM874.809 145.394v621.879l149.253 141.605v-936.662zM978.138-72.744l-133.288 166.474h-634.322l-156.607-166.474zM463.217 397.877h-112.218v-128.858h-102.885v344.212h248.894v-81.954h-146.009v-55.982h112.218v-77.418zM716.9 345.677h81.201v-76.659h-264.78v76.659h84.981v163.661c-32.278-14.291-57.495-22.696-75.652-25.218v77.417c48.921 10.59 82.121 29.584 99.607 56.992h74.643v-272.852z" />
<glyph unicode="&#xe625;" glyph-name="task-type-transaction" d="M885.836 392.752l-28.351-158.403h-148.401l-55.413-305.026h-170.595l55.413 305.026h-119.683l-55.413-305.026h-168.325l55.413 305.026h-166.689l29.087 158.403h166.382l20.414 112.585h-164.827l29.087 158.404h164.521l51.608 284.081h168.304l-51.587-284.081h119.683l51.607 284.081h170.596l-51.608-284.081h144.598l-28.352-158.404h-145.006l-20.434-112.585h147.971zM587.683 505.337h-119.683l-20.435-112.585h119.684l20.434 112.585z" />
<glyph unicode="&#xe626;" glyph-name="task-type-who" d="M622.826 248.121c-22.11 3.519-22.614 64.314-22.614 64.314s64.968 64.315 79.128 150.802c38.090 0 61.618 91.946 23.522 124.296 1.59 34.054 48.96 267.324-190.862 267.324s-192.45-233.27-190.864-267.324c-38.094-32.35-14.569-124.296 23.522-124.296 14.158-86.486 79.128-150.802 79.128-150.802s-0.504-60.796-22.614-64.314c-71.22-11.332-337.172-128.634-337.172-257.264h896c0 128.63-265.952 245.932-337.174 257.264v0z" />
<glyph unicode="&#xe627;" glyph-name="text" d="M166.226 877.143l34.622-15.429c8.549-1.904 53.643-2.857 135.285-2.857h83.351l12.183 1.714 73.733 0.571 137.849-0.571h187.858l21.799-1.143c5.986-0.382 11.966 0.953 17.952 4s10.471 6.096 13.465 9.143l4.489 4.571 26.928 0.571c6.411 0 12.393-0.19 17.952-0.571v-59.714c0 0 0.215-25.047 0.642-75.143l0.64-57.143-0.64-33.143c0-12.19-0.855-21.904-2.565-29.143-16.672-5.714-31.205-9.143-43.6-10.286-10.683 16.382-22.224 40.761-34.619 73.143-3.422 9.143-6.731 21.047-9.941 35.714-3.207 14.667-5.666 27.143-7.374 37.429s-2.992 15.81-3.847 16.571c-5.557 5.714-11.326 9.333-17.312 10.857-2.99 0.761-12.075 1.143-27.248 1.143-15.175 0-37.291-0.19-66.361-0.571-29.067-0.382-52.789-0.571-71.168-0.571-14.533 0-28.853-0.953-42.958-2.857-4.274-36.953-5.984-62.857-5.129-77.714l0.64-86.857v-189.714l1.925-205.143-0.64-84c-0.427-17.522 1.922-33.714 7.051-48.571 20.944-9.522 39.966-15.621 57.065-18.286 0.855 0 4.702-0.951 11.541-2.857s16.242-4.379 28.21-7.429c11.968-3.049 21.159-5.335 27.573-6.857 12.821-3.049 23.506-6.478 32.057-10.286 2.139-17.143 3.205-26.665 3.205-28.571 0-3.808-0.64-9.335-1.925-16.571-5.986-0.379-13.248-0.571-21.799-0.571-47.019 0-86.983 1.906-119.895 5.714-30.777 3.049-81.643 4.571-152.597 4.571-37.616 0-87.413-2.665-149.39-8-20.519-1.522-35.477-2.286-44.882-2.286-0.855 8.379-1.282 13.335-1.282 14.857l-0.64 14.857v5.143c8.976 12.571 25.861 21.906 50.651 28 59.413 14.478 93.394 24 101.943 28.571 3.847 8 6.411 18.665 7.694 32 3.419 73.143 4.702 155.621 3.847 247.429l-3.207 244.571c-0.427 23.618-0.535 46.19-0.32 67.714s0.32 41.047 0.32 58.571-0.427 28.382-1.282 32.571c-0.855 4.19-2.137 7.047-3.847 8.571-2.565 1.904-5.557 3.047-8.976 3.429-16.242 2.286-47.872 3.429-94.891 3.429-18.379 0-39.751-2.571-64.114-7.714s-39.966-9.81-46.805-14c-5.557-3.429-10.258-9.714-14.105-18.857s-8.549-23.429-14.105-42.857c-5.557-19.429-10.686-35.429-15.387-48-2.565-7.239-6.731-13.333-12.503-18.286-5.769-4.953-10.151-7.429-13.143-7.429-18.809 10.286-30.775 18.667-35.904 25.143v218.857l51.931 0.571z" />
<glyph unicode="&#xe628;" glyph-name="tooltip" d="M894.993 854.848h-767.138c-70.319 0-127.855-57.535-127.855-127.856v-447.498c0-70.318 57.536-127.854 127.855-127.854h255.712l255.713-191.787v191.787h255.712c70.32 0 127.855 57.535 127.855 127.854v447.498c0.002 70.321-57.534 127.856-127.854 127.856v0z" />
<glyph unicode="&#xe629;" glyph-name="training-answer" d="M501.13 153.877c-19.511 3.105-19.956 56.754-19.956 56.754s57.331 56.754 69.826 133.074c33.611 0 54.373 81.138 20.758 109.684 1.402 30.051 43.203 235.897-168.425 235.897s-169.826-205.846-168.426-235.897c-33.616-28.546-12.857-109.684 20.758-109.684 12.494-76.32 69.825-133.074 69.825-133.074s-0.443-53.648-19.956-56.754c-62.846-10-297.534-113.513-297.534-227.020h790.667c0 113.507-234.688 217.020-297.537 227.020v0zM952.416 945.909h-626.24c-39.521 0-71.552-32.064-71.552-71.552v-88.132c0-39.488 32.031-71.552 71.552-71.552h284.292l0.032-164.385 182.527 164.385h159.421c39.552 0 71.552 32.063 71.552 71.552v88.132c-0.032 39.488-32.032 71.552-71.584 71.552zM447.296 808.357c-17.696 0-32 14.336-32 32 0 17.695 14.304 32 32 32 17.664 0 32-14.305 32-32 0-17.664-14.336-32-32-32zM575.296 809.701c-17.696 0-32 14.336-32 32 0 17.696 14.304 32 32 32 17.664 0 32-14.304 32-32 0-17.664-14.336-32-32-32zM703.936 809.029c-17.664 0-32 14.304-32 32 0 17.664 14.336 32 32 32 17.696 0 32-14.336 32-32s-14.336-32-32-32zM831.296 808.357c-17.696 0-32 14.336-32 32 0 17.695 14.304 32 32 32 17.664 0 32-14.305 32-32 0-17.664-14.336-32-32-32z" />
<glyph unicode="&#xe62a;" glyph-name="previous-document" d="M810 54.857v598h-468v-598h468zM810 736.857q34 0 60-25t26-59v-598q0-34-26-60t-60-26h-468q-34 0-60 26t-26 60v598q0 34 26 59t60 25h468zM682 908.857v-86h-512v-598h-84v598q0 34 25 60t59 26h512z" />
<glyph unicode="&#xe62b;" glyph-name="training-question" d="M443.342 431.248v19.553c0 62.428 4.887 101.791 14.664 118.087 9.775 16.288 35.583 39.876 77.438 70.748 21.948 16.12 37.216 31.13 45.793 45.022 8.57 13.893 12.864 31.13 12.864 51.711 0 25.381-8.063 45.359-24.183 59.944-16.128 14.576-35.681 21.867-58.658 21.867-60.715 0-94.851-42.883-102.393-128.634l-140.983 20.067c10.628 77.518 39.017 136.176 85.156 175.972 46.131 39.788 102.473 59.686 169.026 59.686 67.918 0 124.854-19.553 170.825-58.658 45.963-39.104 68.948-88.677 68.948-148.701 0-74.439-38.252-136.698-114.741-186.778-33.276-21.956-53.432-39.104-60.458-51.453-7.035-12.35-10.549-35.166-10.549-68.435h-132.749zM444 406.357h132v-132h-132v132zM2 406.357h368.5v-132h-368.5v132zM2 190.357h1022.5v-132h-1022.5v132zM2-9.643h1022.5v-65.5h-1022.5v65.5zM655.5 406.357h368.5v-132h-368.5v132z" />
<glyph unicode="&#xe62c;" glyph-name="translation-complete" d="M943.976 116.056c0-91.292-73.986-165.39-165.39-165.39h-551.224c-91.404 0-165.39 74.097-165.39 165.39v654.595c0 91.281 73.986 165.391 165.39 165.391h551.224c91.404 0 165.39-74.108 165.39-165.391v-654.595zM594.397 742.904h-153.364l-208.052-540.935h148.608l37.251 94.316h194.181l34.875-94.316h150.194l-203.693 540.935zM457.677 403.284l59.048 172.385 58.255-172.385h-117.303z" />
<glyph unicode="&#xe62d;" glyph-name="translation-incomplete" d="M943.976 116.056c0-91.292-73.986-165.39-165.39-165.39h-551.224c-91.404 0-165.39 74.097-165.39 165.39v654.595c0 91.281 73.986 165.391 165.39 165.391h551.224c91.404 0 165.39-74.108 165.39-165.391v-654.595zM594.397 742.904h-153.364l-208.052-540.935h148.608l37.251 94.316h194.181l34.875-94.316h150.194l-203.693 540.935zM457.677 403.284l59.048 172.385 58.255-172.385h-117.303z" />
<glyph unicode="&#xe62e;" glyph-name="twitter" d="M1024 756.439c-37.676-16.708-78.164-28.002-120.66-33.080 43.372 26 76.686 67.17 92.372 116.23-40.596-24.078-85.556-41.56-133.41-50.98-38.32 40.83-92.922 66.34-153.346 66.34-116.022 0-210.088-94.058-210.088-210.078 0-16.466 1.858-32.5 5.44-47.878-174.6 8.764-329.402 92.4-433.018 219.506-18.084-31.028-28.446-67.116-28.446-105.618 0-72.888 37.088-137.192 93.46-174.866-34.438 1.092-66.832 10.542-95.154 26.278-0.020-0.876-0.020-1.756-0.020-2.642 0-101.788 72.418-186.696 168.522-206-17.626-4.8-36.188-7.372-55.348-7.372-13.538 0-26.698 1.32-39.528 3.772 26.736-83.46 104.32-144.206 196.252-145.896-71.9-56.35-162.486-89.934-260.916-89.934-16.958 0-33.68 0.994-50.116 2.94 92.972-59.61 203.402-94.394 322.042-94.394 386.422 0 597.736 320.124 597.736 597.744 0 9.108-0.206 18.168-0.61 27.18 41.056 29.62 76.672 66.62 104.836 108.748z" />
<glyph unicode="&#xe62f;" glyph-name="undo" d="M773.862-73.143c113.726 206.032 132.888 520.306-313.862 509.824v-253.824l-384 384 384 384v-248.372c534.962 13.942 594.57-472.214 313.862-775.628z" />
<glyph unicode="&#xe630;" glyph-name="unlink" d="M762.857 250.857l146.286-146.286c3.429-3.808 5.143-8.19 5.143-13.143 0-4.571-1.714-8.951-5.143-13.143-3.808-3.429-8.192-5.143-13.143-5.143s-9.335 1.714-13.143 5.143l-146.286 146.286c-3.429 3.808-5.143 8.192-5.143 13.143s1.714 9.335 5.143 13.143c3.808 3.429 8.192 5.143 13.143 5.143s9.335-1.714 13.143-5.143zM786.286 347.428h182.857c5.335 0 9.714-1.714 13.143-5.143s5.143-7.808 5.143-13.143-1.714-9.714-5.143-13.143-7.808-5.143-13.143-5.143h-182.857c-5.335 0-9.714 1.714-13.143 5.143s-5.143 7.808-5.143 13.143 1.714 9.714 5.143 13.143 7.808 5.143 13.143 5.143zM658.286 219.428c5.335 0 9.714-1.714 13.143-5.143s5.143-7.808 5.143-13.143v-182.857c0-5.333-1.714-9.714-5.143-13.143s-7.808-5.143-13.143-5.143-9.714 1.714-13.143 5.143-5.143 7.81-5.143 13.143v182.857c0 5.335 1.714 9.714 5.143 13.143s7.808 5.143 13.143 5.143zM731.429 941.714c45.714 0 84.379-16.19 116-48.571l83.429-84c31.621-31.618 47.429-70.286 47.429-116 0-46.094-16.192-84.951-48.571-116.571l-191.429-190.857c-8-8-18.665-16-32-24l-10.286 136.571 156.571 156c10.286 10.286 15.522 23.237 15.714 38.857 0.192 15.618-4.857 28.571-15.143 38.857l-83.429 84c-10.665 10.667-23.429 16-38.286 16-15.237 0-28.192-5.333-38.857-16l-157.143-156.571-136.571 10.286c8 13.333 16 24 24 32l192 192c32.763 32 71.621 48 116.571 48zM317.714 589.143l10.286-136.571-156.571-156c-10.667-10.665-16-23.621-16-38.857 0-14.857 5.143-27.808 15.429-38.857l83.429-84c10.667-10.665 23.429-16 38.286-16 15.239 0 28.19 5.335 38.857 16l156.571 156.571 137.143-10.286c-8-13.335-16-24-24-32l-192-192c-32.761-32-71.618-48-116.571-48-45.714 0-84.382 16.192-116 48.571l-83.429 84c-31.618 31.621-47.429 70.286-47.429 116 0 46.094 16.19 84.951 48.571 116.571l191.429 190.857c8 8 18.667 16 32 24zM365.714 950.857c5.333 0 9.714-1.714 13.143-5.143s5.143-7.81 5.143-13.143v-182.857c0-5.333-1.714-9.714-5.143-13.143s-7.81-5.143-13.143-5.143-9.714 1.714-13.143 5.143-5.143 7.81-5.143 13.143v182.857c0 5.333 1.714 9.714 5.143 13.143s7.81 5.143 13.143 5.143zM54.857 640h182.857c5.333 0 9.714-1.714 13.143-5.143s5.143-7.808 5.143-13.143-1.714-9.714-5.143-13.143-7.81-5.143-13.143-5.143h-182.857c-5.333 0-9.714 1.714-13.143 5.143s-5.143 7.808-5.143 13.143 1.714 9.714 5.143 13.143 7.81 5.143 13.143 5.143zM141.143 872.571l146.286-146.286c3.429-4.19 5.143-8.571 5.143-13.143s-1.714-8.953-5.143-13.143c-3.81-3.429-8.19-5.143-13.143-5.143s-9.333 1.714-13.143 5.143l-146.286 146.286c-3.429 3.81-5.143 8.19-5.143 13.143s1.714 9.333 5.143 13.143c3.81 3.429 8.19 5.143 13.143 5.143s9.333-1.714 13.143-5.143z" />
<glyph unicode="&#xe631;" glyph-name="section-insert-after" d="M0 614.361v-687.504h1025v687.504h-1025zM913.359 22.192h-798.079v510.958h798.080l-0.001-510.958zM220.291 426.539h612.061v-114.011h-612.061v114.011zM217.29 232.516h612.062v-114.012h-612.062v114.012zM658.338 600.566h-391.308v350.291h391.306v-350.291h0.002zM520.324 831.075h-135.013v-205.082h167.015v205.082h-32.002zM891.37 643.713h-41.885c-5.816 0-10.76 2.036-14.834 6.108-4.070 4.073-6.108 9.016-6.108 14.834v90.748h-90.744c-5.82 0-10.764 2.036-14.833 6.108-4.073 4.070-6.109 9.016-6.109 14.832v41.883c0 5.817 2.036 10.762 6.105 14.834 4.073 4.072 9.017 6.107 14.837 6.107h90.745v90.747c0 5.818 2.037 10.763 6.107 14.834 4.075 4.072 9.018 6.109 14.834 6.109h41.885c5.816 0 10.762-2.037 14.831-6.109 4.071-4.070 6.11-9.016 6.107-14.832v-90.748l90.748 0.001c5.819-0.001 10.761-2.037 14.834-6.109s6.109-9.017 6.109-14.833v-41.884c0-5.816-2.039-10.761-6.109-14.832-4.073-4.073-9.015-6.108-14.834-6.11l-90.748 0.002 0.003-90.748c-0.003-5.818-2.039-10.761-6.11-14.834-4.069-4.072-9.014-6.108-14.831-6.108z" />
<glyph unicode="&#xe632;" glyph-name="visibility-on" d="M512 566.857q52 0 90-38t38-90-38-90-90-38-90 38-38 90 38 90 90 38zM512 224.857q88 0 151 63t63 151-63 151-151 63-151-63-63-151 63-151 151-63zM512 758.857q158 0 286-88t184-232q-56-144-184-232t-286-88-286 88-184 232q56 144 184 232t286 88z" />
<glyph unicode="&#xe633;" glyph-name="section-insert-before" d="M0 614.361v-687.504h1025v687.504h-1025zM913.359 22.192h-798.079v510.958h798.080l-0.001-510.958zM220.291 426.539h612.061v-114.011h-612.061v114.011zM217.29 232.516h612.062v-114.012h-612.062v114.012zM760.35 600.566h-391.309v350.291h391.307v-350.291h0.002zM622.336 831.075h-135.014v-205.082h167.014v205.082h-32zM174.514 643.713h-41.885c-5.816 0-10.76 2.036-14.834 6.108-4.070 4.073-6.108 9.016-6.108 14.834v90.748h-90.745c-5.82 0-10.764 2.036-14.833 6.108-4.073 4.071-6.109 9.016-6.109 14.832v41.883c0 5.817 2.036 10.762 6.105 14.834 4.073 4.072 9.017 6.107 14.837 6.107h90.745v90.747c0 5.818 2.037 10.763 6.107 14.834 4.075 4.072 9.019 6.109 14.835 6.109h41.885c5.816 0 10.762-2.037 14.831-6.109 4.071-4.070 6.11-9.016 6.107-14.832v-90.748l90.748 0.001c5.819-0.001 10.761-2.037 14.834-6.109s6.109-9.017 6.109-14.833v-41.884c0-5.816-2.039-10.761-6.109-14.832-4.073-4.073-9.015-6.108-14.834-6.11l-90.748 0.002 0.003-90.748c-0.003-5.818-2.039-10.761-6.11-14.834-4.070-4.072-9.015-6.108-14.831-6.108z" />
<glyph unicode="&#xe634;" glyph-name="select-all" d="M960-73.143h-768c-17.334 0-32.334 6.166-45 18.5s-19 27.5-19 45.5v360l279-278c12-12.666 27.334-18.334 46-17h123c17.332 0 32.334 6.166 45 18.5s19 27.5 19 45.5v127c0 15.332-6.334 29-19 41l-493 493v105c0 18 6.334 33.166 19 45.5s27.666 18.5 45 18.5h448v-352c0-8.666 3-16.166 9-22.5s13.666-9.5 23-9.5h351v-575c0-18-6.166-33.166-18.5-45.5s-27.166-18.5-44.5-18.5zM704 950.857c17.334 0 32-6 44-18l256-257c12.666-12.666 19-28 19-46h-319v321zM79 506.857l-68 67c-7.334 8-11 17.334-11 28s3.666 19.666 11 27l55 55c7.334 7.334 16.5 11 27.5 11s20.166-3.666 27.5-11l67-67-109-110zM576 215.857v-64c0-9.332-3.168-17-9.5-23s-13.832-9-22.5-9h-64c-9.334 0-18 3.668-26 11l-324 324 110 110 324-324c8-8 12-16.332 12-25z" />
<glyph unicode="&#xe635;" glyph-name="spell-check" d="M128 694.857h128v-192h64v384c0 35.2-28.8 64-64 64h-128c-35.2 0-64-28.8-64-64v-384h64v192zM128 886.857h128v-128h-128v128zM960 886.857v64h-192c-35.202 0-64-28.8-64-64v-320c0-35.2 28.798-64 64-64h192v64h-192v320h192zM640 790.857v96c0 35.2-28.8 64-64 64h-192v-448h192c35.2 0 64 28.8 64 64v96c0 35.2-8.8 64-44 64 35.2 0 44 28.8 44 64zM576 566.857h-128v128h128v-128zM576 758.857h-128v128h128v-128zM832 374.857l-416-448-224 288 82 70 142-148 352 302 64-64z" />
<glyph unicode="&#xe636;" glyph-name="star" d="M1024 553.807l-353.78 51.408-158.22 320.582-158.216-320.582-353.784-51.408 256-249.538-60.432-352.352 316.432 166.358 316.432-166.358-60.434 352.352 256.002 249.538z" />
<glyph unicode="&#xe637;" glyph-name="stock-text" d="M283.539 916.672h-90.553c-8.331 0-15.092 6.761-15.092 15.092s6.761 15.093 15.092 15.093h90.553c8.3 0 15.092-6.761 15.092-15.092s-6.792-15.093-15.092-15.093zM192.986 373.3h90.553c8.3 0 15.092-6.762 15.092-15.093s-6.792-15.092-15.092-15.092h-90.553c-8.331 0-15.092 6.761-15.092 15.092s6.761 15.093 15.092 15.093zM464.646 916.672h-90.554c-8.331 0-15.092 6.761-15.092 15.092s6.76 15.093 15.091 15.093h90.553c8.301 0 15.093-6.761 15.093-15.092s-6.791-15.093-15.091-15.093zM374.092 373.3h90.553c8.301 0 15.093-6.762 15.093-15.093s-6.792-15.092-15.093-15.092h-90.553c-8.331 0-15.092 6.761-15.092 15.092s6.761 15.093 15.092 15.093zM1008.908 342.172h-90.555c-8.33 0-15.092 6.762-15.092 15.092s6.762 15.093 15.092 15.093h75.462v75.461c0 8.331 6.762 15.093 15.093 15.093 8.3 0 15.092-6.762 15.092-15.093v-90.554c0-8.33-6.792-15.092-15.092-15.092zM1008.908 592.357c-8.331 0-15.093 6.761-15.093 15.092v90.553c0 8.331 6.762 15.092 15.093 15.092 8.3 0 15.092-6.761 15.092-15.092v-90.553c0-8.331-6.792-15.092-15.092-15.092zM1008.908 825.176c-8.331 0-15.093 6.761-15.093 15.092v75.461h-75.462c-8.33 0-15.092 6.762-15.092 15.092 0 8.331 6.762 15.092 15.092 15.092h90.555c8.3 0 15.092-6.761 15.092-15.092v-90.553c0-8.33-6.792-15.092-15.092-15.092zM827.802 342.172h-90.554c-8.331 0-15.092 6.762-15.092 15.092s6.761 15.093 15.092 15.093h90.554c8.3 0 15.092-6.762 15.092-15.093s-6.792-15.092-15.092-15.092zM827.802 915.729h-90.554c-8.331 0-15.092 6.762-15.092 15.092 0 8.331 6.761 15.092 15.092 15.092h90.554c8.3 0 15.092-6.761 15.092-15.092 0-8.33-6.792-15.092-15.092-15.092zM646.695 915.729h-90.555c-8.331 0-15.092 6.762-15.092 15.092 0 8.331 6.761 15.092 15.092 15.092h90.555c8.3 0 15.092-6.761 15.092-15.092 0-8.33-6.792-15.092-15.092-15.092zM111.394 342.172h-90.554c-8.331 0-15.092 6.762-15.092 15.092v90.554c0 8.331 6.762 15.093 15.092 15.093s15.092-6.762 15.092-15.093v-75.461h75.461c8.331 0 15.092-6.762 15.092-15.093 0.001-8.33-6.76-15.092-15.091-15.092zM111.394 915.729h-75.461v-75.461c0-8.331-6.761-15.092-15.092-15.092s-15.092 6.761-15.092 15.092v90.553c0 8.331 6.762 15.092 15.092 15.092h90.553c8.331 0 15.092-6.761 15.092-15.092 0-8.33-6.761-15.092-15.092-15.092zM20.84 713.094c8.331 0 15.092-6.761 15.092-15.092v-90.553c0-8.331-6.761-15.092-15.092-15.092s-15.092 6.761-15.092 15.092v90.553c0 8.331 6.762 15.092 15.092 15.092zM556.142 372.357h90.555c8.3 0 15.092-6.762 15.092-15.093s-6.792-15.092-15.092-15.092h-90.555c-8.331 0-15.092 6.762-15.092 15.092s6.761 15.093 15.092 15.093zM150.5 796.357h716.651v-283.074h-716.651v283.074zM4.097 200.579h1020.554v-77.716h-1020.554v77.716zM4.097 3.501h1020.554v-77.716h-1020.554v77.716z" />
<glyph unicode="&#xe638;" glyph-name="subheader" d="M-1.268 950.857h1025.268v-112.106h-1025.268v112.106zM205.289 263.367h818.711v-112.105h-818.711v112.105zM706.34 749.419h317.66v-112.106h-317.66v112.106zM706.34 498.392h317.66v-112.106h-317.66v112.106zM205.289 37.963h818.711v-112.106h-818.711v112.106zM393.765 384.981h-182.78v88.068h26.219v191.74h-26.718v88.068h183.279v-88.068h-22.223v-56.067h80.402v56.067h-22.472v88.068h183.028v-88.068h-26.219v-191.74h26.219v-88.068h-183.028v88.068h22.472v60.299h-80.402v-60.299h22.223v-88.068z" />
<glyph unicode="&#xe639;" glyph-name="subsection-insert-after" d="M722.995-73.643h301.505v1025h-301.505v-1025zM724.791 951.857v-391.309h-724.291v391.309h724.291zM130.168 813.843v-135.013h533.777v135.013h-533.777zM407.429 49.342h-59.714c-8.292 0.001-15.34 2.902-21.148 8.708-5.803 5.806-8.709 12.854-8.709 21.148v129.377h-129.372c-8.298 0-15.345 2.902-21.147 8.708-5.807 5.804-8.71 12.854-8.71 21.146v59.711c0 8.294 2.903 15.343 8.705 21.148 5.807 5.806 12.854 8.707 21.152 8.707h129.373v129.375c0 8.295 2.904 15.345 8.708 21.148 5.808 5.806 12.856 8.71 21.148 8.71h59.714c8.292 0 15.343-2.904 21.144-8.71 5.805-5.803 8.711-12.854 8.708-21.146v-129.375l129.377 0.001c8.296-0.001 15.341-2.904 21.148-8.71s8.71-12.854 8.71-21.147v-59.712c0-8.293-2.907-15.343-8.71-21.146-5.808-5.806-12.853-8.708-21.148-8.711l-129.377 0.003 0.004-129.376c-0.004-8.295-2.907-15.343-8.711-21.148-5.802-5.806-12.852-8.709-21.145-8.709z" />
<glyph unicode="&#xe63a;" glyph-name="subsection-insert-before" d="M722.995-73.643h301.505v1025h-301.505v-1025zM724.791 437.857v-391.309h-724.291v391.309h724.291zM130.168 299.843v-135.014h533.777v135.014h-533.777zM407.429 512.971h-59.714c-8.292 0.001-15.34 2.902-21.148 8.708-5.803 5.806-8.709 12.854-8.709 21.148v129.376h-129.372c-8.298 0-15.345 2.902-21.147 8.708-5.807 5.804-8.71 12.854-8.71 21.146v59.711c0 8.294 2.903 15.343 8.705 21.148 5.807 5.806 12.854 8.707 21.152 8.707h129.373v129.376c0 8.295 2.904 15.345 8.708 21.148 5.808 5.806 12.856 8.71 21.148 8.71h59.714c8.292 0 15.343-2.904 21.144-8.71 5.805-5.803 8.711-12.854 8.708-21.146v-129.375l129.377 0.001c8.296-0.001 15.341-2.904 21.148-8.71s8.71-12.854 8.71-21.147v-59.712c0-8.293-2.907-15.343-8.71-21.146-5.808-5.806-12.853-8.708-21.148-8.711l-129.377 0.003 0.004-129.376c-0.004-8.295-2.907-15.343-8.711-21.148-5.802-5.807-12.852-8.709-21.145-8.709z" />
<glyph unicode="&#xe63b;" glyph-name="sub-unordered-list" d="M652.333 886.857h371.667v-128h-371.667v128zM652.333 502.857h371.667v-128h-371.667v128zM652.333 118.857h371.667v-128h-371.667v128zM340.034 822.857c0 70.692 57.308 128 128 128s128-57.308 128-128-57.309-128-128-128c-70.692 0-128 57.309-128 128zM340.034 438.857c0 70.693 57.308 128 128 128s128-57.308 128-128c0-70.691-57.309-128-128-128s-128 57.309-128 128zM340.034 54.857c0 70.693 57.308 128 128 128s128-57.307 128-128c0-70.691-57.309-128-128-128s-128 57.309-128 128zM0 246.857v384l256-192z" />
<glyph unicode="&#xe63c;" glyph-name="image" d="M0 856.857v-832h1024v832h-1024zM960 88.857h-896v704h896v-704zM704 632.857c0 53.019 42.981 96 96 96s96-42.981 96-96-42.981-96-96-96-96 42.981-96 96zM896 152.857h-768l192 512 256-320 128 96 192-288z" />
<glyph unicode="&#xe63d;" glyph-name="image-change" d="M128 694.857v-640h896v640h-896zM960 161.523l-128 213.334-145.066-120.886-110.934 184.886-384-320v512h768v-469.334zM256 470.857c0 53.020 42.98 96 96 96s96-42.98 96-96-42.98-96-96-96-96 42.98-96 96zM896 822.857h-896v-640h64v576h832v64z" />
<glyph unicode="&#xe63e;" glyph-name="imagemap" d="M513 943.831c-172.918 0-313.118-140.2-313.118-313.118s313.118-521.863 313.118-521.863 313.118 348.945 313.118 521.863c0 172.918-140.2 313.118-313.118 313.118zM513 421.968c-115.279 0-208.745 93.465-208.745 208.745s93.466 208.746 208.745 208.746 208.745-93.466 208.745-208.746-93.466-208.745-208.745-208.745zM513 735.086c-57.64 0-104.373-46.732-104.373-104.373s46.733-104.372 104.373-104.372 104.373 46.732 104.373 104.372-46.733 104.373-104.373 104.373zM233.5 286.522l-232.5-301.665h1024l-193.5 301.665h-598zM961 22.165h-896l182.5 246.869h566l147.5-246.869zM718 92.857l58.5 31 120.5-64.386h-768l274.5 160.386 101.5-122 106 40 107-45z" />
<glyph unicode="&#xe63f;" glyph-name="images-properties" d="M840.449 947.857h184.551v-121.162h-184.551v121.162zM840.449 721.862h184.551v-121.162h-184.551v121.162zM840.449 495.867h184.551v-121.162h-184.551v121.162zM1.652 269.872h1023.348v-121.162h-1023.348v121.162zM1.652 43.877h1023.348v-121.162h-1023.348v121.162zM0 950.857v-598.844h737.039v598.844h-737.039zM690.974 398.079h-644.909v506.713h644.909v-506.713zM506.714 789.63c0 38.161 30.937 69.097 69.097 69.097s69.098-30.936 69.098-69.097c0-38.162-30.937-69.098-69.098-69.098s-69.097 30.936-69.097 69.098zM644.909 444.142h-552.779l138.194 368.52 184.26-230.325 92.13 69.098 138.195-207.293z" />
<glyph unicode="&#xe640;" glyph-name="import-user" d="M1024-39.143c0-8-7.167-14.5-21.5-19.5s-35.333-8.5-63-10.5-50.5-3.167-68.5-3.5-41.667-0.5-71-0.5-53 0.167-71 0.5-40.833 1.5-68.5 3.5-48.667 5.5-63 10.5-21.5 11.5-21.5 19.5c0.667 28 16 53 46 75s68 37 114 45v20c-64 28-96 98-96 210 0 42 15 73.834 45 95.5s68.5 32.5 115.5 32.5 85.333-10.834 115-32.5 44.5-53.5 44.5-95.5c0-115.334-32-185.666-96-211v-19c46.667-8 84.833-23 114.5-45s44.833-47 45.5-75zM224-73.143c-29.333 0-53 0.167-71 0.5s-40.833 1.5-68.5 3.5-48.667 5.5-63 10.5-21.5 11.5-21.5 19.5c0.667 28 15.833 53 45.5 75s67.833 37 114.5 45v20c-64 28-96 98-96 210 0 42 14.833 73.834 44.5 95.5s68 32.5 115 32.5 85.5-10.834 115.5-32.5 45-53.5 45-95.5c0-115.334-32-185.666-96-211v-19c46-8 84-23 114-45s45.333-47 46-75c0-8-7.167-14.5-21.5-19.5s-35.333-8.5-63-10.5-50.5-3.167-68.5-3.5-41.667-0.5-71-0.5zM556.979 517.857c-13.333-10.667-29.167-16-47.5-16s-34.167 5.333-47.5 16l-189 150c-12.668 10.667-19 23.333-19 38s6.5 27.167 19.5 37.5 28.666 15.5 47 15.5c18.332 0 34.166-5.333 47.5-16l77-61v205c0 17.333 6.166 32.333 18.5 45 12.332 12.667 27.332 19 45 19s32.833-6.333 45.5-19 19-27.667 19-45v-206l78 62c13.333 10.667 29.167 16 47.5 16s34-5.167 47-15.5 19.5-22.833 19.5-37.5-6.334-27.333-19-38l-189-150z" />
<glyph unicode="&#xe641;" glyph-name="indent-decrease" d="M0 886.857h1024v-128h-1024v128zM384 694.857h640v-128h-640v128zM384 502.857h640v-128h-640v128zM384 310.857h640v-128h-640v128zM0 118.857h1024v-128h-1024v128zM256 630.857v-384l-256 192 256 192z" />
<glyph unicode="&#xe642;" glyph-name="indent-increase" d="M1 886.857h1024v-128h-1024v128zM385 694.857h640v-128h-640v128zM385 502.857h640v-128h-640v128zM385 310.857h640v-128h-640v128zM1 118.857h1024v-128h-1024v128zM1 246.857v384l256-192-256-192z" />
<glyph unicode="&#xe643;" glyph-name="italic" d="M830.713 928.236c8.26-3.582 12.391-8.176 12.391-13.782 0-8.682-5.668-13.529-17.006-14.541-42.779-4.151-72.936-12.307-90.447-24.445-17.533-12.159-31.947-30.788-43.283-55.865-11.338-25.077-34.75-101.615-70.238-229.614-35.487-127.999-66.317-246.831-92.49-356.476-26.175-109.644-39.24-174.802-39.24-195.475 0-46.572 27.438-72.176 82.313-76.813 23.813-2.107 35.719-8.176 35.719-18.165 0-9.482-9.842-14.203-29.482-14.203l-270.032 4.046-103.976-2.339c-16.037 0-24.044 4.573-24.044 13.761 0 8.598 12.391 14.688 37.194 18.249 45.961 6.196 78.245 19.156 96.832 38.839s34.603 58.288 48.047 115.797l78.497 302.255 69.921 272.73c18.65 73.545 27.986 116.029 27.986 127.43 0 52.831-37.132 81.849-111.394 87.032-15.468 1.518-23.202 6.828-23.202 15.974 0 6.069 2.318 9.883 6.954 11.401 4.636 1.517 17.554 2.297 38.732 2.297l380.248-8.093z" />
<glyph unicode="&#xe644;" glyph-name="key" d="M704 950.857c-176.728 0-320-143.27-320-320 0-20.028 1.86-39.618 5.376-58.626l-389.376-389.374v-192c0-35.348 28.654-64 64-64h64v64h128v128h128v128h128l83.042 83.042c34.010-12.316 70.696-19.042 108.958-19.042 176.73 0 320 143.268 320 320 0 176.73-143.27 320-320 320zM799.874 630.731c-53.020 0-96 42.98-96 96s42.98 96 96 96 96-42.98 96-96-42.98-96-96-96z" />
<glyph unicode="&#xe645;" glyph-name="key-admin" d="M632.702 949.837c-169.732-12.636-297.088-160.476-284.454-330.214 1.436-19.24 4.618-37.916 9.356-55.92l-346.126-401.8 13.724-184.402c2.534-33.948 32.098-59.422 66.044-56.89l61.47 4.574-4.578 61.464 122.934 9.156-9.152 122.934 122.938 9.144-9.154 122.94 122.932 9.156 73.822 85.682c33.544-9.396 69.258-13.228 106.002-10.494 169.736 12.634 297.092 160.474 284.458 330.214-12.638 169.732-160.478 297.088-330.216 284.456zM747.672 649.235c-50.918-3.788-95.272 34.416-99.062 85.338s34.414 95.272 85.338 99.060c50.92 3.794 95.274-34.414 99.064-85.336 3.79-50.92-34.42-95.27-85.34-99.062zM857.254 52.997c-10.936 1.724-11.184 31.536-11.184 31.536s32.128 31.536 39.13 73.94c18.84 0 30.472 45.084 11.634 60.944 0.786 16.698 24.212 131.074-94.39 131.074-118.606 0-95.176-114.376-94.39-131.074-18.842-15.86-7.206-60.944 11.632-60.944 7-42.404 39.132-73.94 39.132-73.94s-0.248-29.81-11.184-31.536c-35.222-5.556-166.748-63.070-166.748-126.138h443.114c0 63.066-131.524 120.58-166.746 126.138z" />
<glyph unicode="&#xe646;" glyph-name="link" d="M375.681 135.944l-51.928-51.545c-45.005-44.557-118.156-44.62-163.096 0-21.604 21.477-33.465 49.878-33.465 80.2 0 30.325 11.924 58.789 33.465 80.267l191.047 189.571c39.555 39.301 114.052 97.063 168.352 43.211 24.939-24.747 65.2-24.555 89.882 0.32 24.745 24.874 24.618 65.135-0.32 89.881-92.254 91.55-228.68 74.625-347.476-43.21l-191.048-189.571c-45.774-45.52-71.035-106.038-71.035-170.47 0-64.365 25.261-124.886 71.099-170.405 47.185-46.863 109.115-70.199 171.046-70.199s123.988 23.336 171.174 70.199l51.929 51.609c24.939 24.747 25.066 65.007 0.32 89.817-24.746 24.876-65.008 25.004-89.947 0.321l0.001 0.004zM954.722 872.247c-99.115 98.344-237.656 103.665-329.462 12.629l-64.687-64.174c-24.938-24.746-25.132-64.944-0.385-89.881 24.81-24.939 65.008-25.067 89.881-0.321l64.688 64.174c47.505 47.185 109.755 27.631 150.401-12.629 21.604-21.413 33.464-49.942 33.464-80.202 0-30.324-11.924-58.788-33.464-80.202l-203.87-202.203c-93.152-92.445-136.938-49.106-155.594-30.58-24.938 24.746-65.135 24.555-89.817-0.32-24.747-24.938-24.619-65.199 0.32-89.882 42.76-42.44 91.677-63.469 142.837-63.469 62.7 0 128.926 31.542 191.882 94.049l203.806 202.204c45.839 45.454 71.098 105.974 71.098 170.339s-25.258 124.95-71.098 170.468v0z" />
<glyph unicode="&#xe647;" glyph-name="menu" d="M950.857 182.857v-73.143c0-9.906-3.618-18.478-10.857-25.714s-15.81-10.857-25.714-10.857h-804.571c-9.904 0-18.475 3.621-25.714 10.857s-10.857 15.808-10.857 25.714v73.143c0 9.906 3.618 18.478 10.857 25.714s15.81 10.857 25.714 10.857h804.571c9.904 0 18.475-3.621 25.714-10.857s10.857-15.808 10.857-25.714zM950.857 475.428v-73.143c0-9.906-3.618-18.478-10.857-25.714s-15.81-10.857-25.714-10.857h-804.571c-9.904 0-18.475 3.621-25.714 10.857s-10.857 15.808-10.857 25.714v73.143c0 9.904 3.618 18.475 10.857 25.714s15.81 10.857 25.714 10.857h804.571c9.904 0 18.475-3.618 25.714-10.857s10.857-15.81 10.857-25.714zM950.857 768v-73.143c0-9.904-3.618-18.475-10.857-25.714s-15.81-10.857-25.714-10.857h-804.571c-9.904 0-18.475 3.618-25.714 10.857s-10.857 15.81-10.857 25.714v73.143c0 9.904 3.618 18.475 10.857 25.714s15.81 10.857 25.714 10.857h804.571c9.904 0 18.475-3.618 25.714-10.857s10.857-15.81 10.857-25.714z" />
<glyph unicode="&#xe648;" glyph-name="meter" d="M512 886.857c282.77 0 512-229.23 512-512 0-192.792-106.576-360.666-264.008-448h-495.984c-157.432 87.334-264.008 255.208-264.008 448 0 282.77 229.23 512 512 512zM801.914 84.943c77.438 77.44 120.086 180.398 120.086 289.914h-90v64h85.038c-7.014 44.998-21.39 88.146-42.564 128h-106.474v64h64.284c-9.438 11.762-19.552 23.096-30.37 33.914-46.222 46.22-101.54 80.038-161.914 99.798v-69.712h-64v85.040c-20.982 3.268-42.36 4.96-64 4.96s-43.018-1.69-64-4.96v-85.040h-64v69.712c-60.372-19.76-115.692-53.576-161.914-99.798-10.818-10.818-20.932-22.152-30.37-33.914h64.284v-64h-106.476c-21.174-39.854-35.552-83.002-42.564-128h85.040v-64h-90c0-109.516 42.648-212.474 120.086-289.914 10.71-10.71 21.924-20.728 33.56-30.086h192.354l36.572 512h54.856l36.572-512h192.354c11.636 9.358 22.852 19.378 33.56 30.086z" />
<glyph unicode="&#xe649;" glyph-name="more" d="M0 950.857h1024v-227.535h-1024v227.535zM0 552.624h1024v-227.535h-1024v227.535zM0 154.391h1024v-227.534h-1024v227.534z" />
<glyph unicode="&#xe64a;" glyph-name="visibility_off" d="M506 566.857h6q52 0 90-38t38-90v-8zM322 532.857q-24-48-24-94 0-88 63-151t151-63q46 0 94 24l-66 66q-16-4-28-4-52 0-90 38t-38 90q0 12 4 28zM86 768.857l54 54 756-756-54-54q-10 10-63 62t-81 80q-86-36-186-36-158 0-286 88t-184 232q50 124 160 212-24 24-67 68t-49 50zM512 652.857q-40 0-78-16l-92 92q78 30 170 30 158 0 285-88t183-232q-48-118-146-202l-124 124q16 38 16 78 0 88-63 151t-151 63z" />
<glyph unicode="&#xe64b;" glyph-name="multiple-choice-radio" d="M243.222 946.491c-134.328 0-243.222-108.894-243.222-243.222s108.894-243.222 243.222-243.222c134.328 0 243.222 108.894 243.222 243.222s-108.894 243.222-243.222 243.222zM243.222 520.853c-100.746 0-182.416 81.669-182.416 182.417 0 100.746 81.67 182.416 182.416 182.416s182.417-81.67 182.417-182.416c-0.001-100.748-81.671-182.417-182.417-182.417zM243.222 413.8c-134.328 0-243.222-108.893-243.222-243.221s108.894-243.222 243.222-243.222c134.328 0 243.222 108.894 243.222 243.222s-108.894 243.221-243.222 243.221zM243.222-11.837c-100.746 0-182.416 81.671-182.416 182.416 0 100.746 81.67 182.417 182.416 182.417s182.417-81.671 182.417-182.417c-0.001-100.745-81.671-182.416-182.417-182.416zM152.014 170.579c0 50.373 40.835 91.208 91.208 91.208s91.208-40.835 91.208-91.208-40.835-91.208-91.208-91.208c-50.373 0-91.208 40.835-91.208 91.208zM780.778 946.491c-134.327 0-243.222-108.894-243.222-243.222s108.895-243.222 243.222-243.222c134.328 0 243.222 108.894 243.222 243.222s-108.894 243.222-243.222 243.222zM780.778 520.853c-100.746 0-182.416 81.669-182.416 182.417 0 100.746 81.67 182.416 182.416 182.416s182.417-81.67 182.417-182.416c0-100.748-81.671-182.417-182.417-182.417zM780.778 413.301c-134.327 0-243.222-108.894-243.222-243.222s108.895-243.222 243.222-243.222c134.328 0 243.222 108.895 243.222 243.223s-108.894 243.221-243.222 243.221zM780.778-12.336c-100.746 0-182.416 81.669-182.416 182.416s81.67 182.416 182.416 182.416 182.417-81.67 182.417-182.416c0-100.747-81.671-182.416-182.417-182.416z" />
<glyph unicode="&#xe64c;" glyph-name="nav-history" d="M385.22 392.202c31.279 48.646-31.279 54.217-31.279 54.217h-68.114c0 219.638 111.204 284.297 111.204 284.297 18.067 25.024 4.871 43.791 4.871 43.791-13.896 22.939-34.064 13.897-34.064 13.897-261.362-127.902-250.235-341.986-250.235-341.986l-74.369-0.684c-68.114 3.486-20.153-66.045-20.153-66.045l139.714-157.782c36.134-37.535 74.369-7.641 74.369-7.641l148.056 177.934zM584.705 818.984c-44.344 0-87.126-6.63-127.479-18.848 8.015-33.12 6.076-78.606-32.273-129.125 47.407 26.067 101.82 40.94 159.751 40.94 183.505 0 332.261-148.739 332.261-332.244 0-183.504-148.756-332.277-332.261-332.277-119.154 0-223.368 62.95-282.002 157.179l-82.856-69.63c78.882-117.362 212.829-194.583 364.858-194.583 242.611-0.001 439.296 196.668 439.296 439.31 0 242.609-196.685 439.278-439.295 439.278zM555.675 106.614c0-11.483 9.286-20.77 20.771-20.77 11.469 0 20.771 9.287 20.771 20.77 0 11.469-9.303 20.773-20.771 20.773-11.487 0-20.771-9.304-20.771-20.773zM594.905 663.304c0 11.469-9.303 20.771-20.771 20.771-11.486 0-20.771-9.303-20.771-20.771 0-11.486 9.286-20.771 20.771-20.771 11.469 0 20.771 9.286 20.771 20.771zM874.48 379.69c0 11.469-9.304 20.771-20.773 20.771s-20.787-9.303-20.787-20.771c0-11.487 9.317-20.771 20.787-20.771s20.773 9.285 20.773 20.771zM529.821 382.932c0-24.47 19.843-44.313 44.312-44.313 15.721 0 29.455 8.244 37.323 20.593h116.907c14.238 0 25.772 10.851 25.772 24.241 0 13.393-11.534 24.242-25.772 24.242h-117.478c-5.848 8.636-14.711 14.939-25.023 17.775v183.195c0 6.484-5.262 11.73-11.73 11.73s-11.73-5.246-11.73-11.73v-183.195c-18.735-5.165-32.582-22.157-32.582-42.537zM574.133 401.177c10.085 0 18.246-8.162 18.246-18.245 0-10.086-8.162-18.247-18.246-18.247s-18.246 8.162-18.246 18.247c0 10.084 8.162 18.245 18.246 18.245z" />
<glyph unicode="&#xe64d;" glyph-name="note" d="M203.041 816.266h795.002c0 0 31.803-381.601 0-612.153 0 0-63.599-190.799-278.248-270.3h-624.077c0 0 95.4 139.127 95.4 441.226h43.725c0 0-0.56-266.326-89.717-405.451h530.943c0 0 151.049 75.526 51.674 274.276h191.578c0 0 27.048-11.926 42.948 71.551 0 0 23.85 357.751-7.949 457.126h-707.551l-7.951-67.576-43.725 31.801 7.949 79.501zM302.419 552.596c0-81.971-66.427-148.396-148.396-148.396-81.972-0.001-148.397 66.424-148.397 148.396 0 81.968 66.425 148.393 148.396 148.393 81.97 0 148.397-66.425 148.397-148.393zM599.239 552.596c0-27.081-21.939-49.020-49.020-49.020s-49.020 21.939-49.020 49.020c0 27.079 21.939 49.020 49.020 49.020s49.020-21.942 49.020-49.020zM246.768 601.617h303.452v-98.041h-303.452v98.041z" />
<glyph unicode="&#xe64e;" glyph-name="ok-sign" d="M806.857 531.428c0 10.667-3.429 19.429-10.286 26.286l-52 51.429c-7.237 7.239-15.808 10.857-25.714 10.857s-18.478-3.618-25.714-10.857l-233.143-232.571-129.143 129.143c-7.239 7.239-15.81 10.857-25.714 10.857s-18.475-3.618-25.714-10.857l-52-51.429c-6.857-6.857-10.286-15.618-10.286-26.286 0-10.286 3.429-18.857 10.286-25.714l206.857-206.857c7.239-7.237 15.81-10.857 25.714-10.857 10.286 0 19.047 3.621 26.286 10.857l310.286 310.286c6.857 6.857 10.286 15.429 10.286 25.714zM950.857 438.857c0-79.621-19.618-153.049-58.857-220.286s-92.475-120.478-159.714-159.714c-67.237-39.237-140.665-58.857-220.286-58.857-79.618 0-153.047 19.621-220.286 58.857s-120.475 92.478-159.714 159.714-58.857 140.665-58.857 220.286c0 79.618 19.618 153.047 58.857 220.286s92.475 120.475 159.714 159.714 140.667 58.857 220.286 58.857c79.621 0 153.049-19.618 220.286-58.857 67.239-39.239 120.475-92.475 159.714-159.714s58.857-140.667 58.857-220.286z" />
<glyph unicode="&#xe64f;" glyph-name="ordered-list" d="M356 118.857h640v-128h-640v128zM356 502.857h640v-128h-640v128zM356 886.857h640v-128h-640v128zM164 950.857v-256h-64v192h-64v64h128zM100 424.857v-50h128v-64h-192v146l128 60v50h-128v64h192v-146l-128-60zM228 246.857v-320h-192v64h128v64h-128v64h128v64h-128v64h192z" />
<glyph unicode="&#xe650;" glyph-name="ordered-list-change" d="M793.348 118.857h230.652v-128h-230.652v128zM793.348 502.857h230.652v-128h-230.652v128zM793.348 886.857h230.652v-128h-230.652v128zM647.049 950.857v-256h-64v192h-64v64h128zM583.049 424.857v-50h128v-64h-192v146l128 60v50h-128v64h192v-146l-128-60zM711.049 246.857v-320h-192v64h128v64h-128v64h128v64h-128v64h192zM253.871 484.542v-381.474h50.671c13.935 0 22.802-3.904 26.603-11.718s1.477-17.206-6.967-28.187l-79.808-102.609c-8.444-10.98-18.792-16.468-31.037-16.468s-22.592 5.487-31.036 16.468l-79.808 102.609c-8.444 10.98-10.768 20.373-6.967 28.187s12.668 11.718 26.603 11.718h50.671v381.474zM0 871.814h231.571v50.671c0 13.935 3.904 22.802 11.718 26.603s17.206 1.477 28.187-6.967l102.609-79.808c10.98-8.444 16.468-18.791 16.468-31.036s-5.487-22.592-16.468-31.036l-102.609-79.808c-10.98-8.444-20.373-10.768-28.187-6.968-7.813 3.801-11.718 12.668-11.718 26.603v50.672h-231.571z" />
<glyph unicode="&#xe651;" glyph-name="ordered-list-continue" d="M793.348 118.857h230.652v-128h-230.652v128zM793.348 502.857h230.652v-128h-230.652v128zM793.348 886.857h230.652v-128h-230.652v128zM647.049 950.857v-256h-64v192h-64v64h128zM583.049 424.857v-50h128v-64h-192v146l128 60v50h-128v64h192v-146l-128-60zM711.049 246.857v-320h-192v64h128v64h-128v64h128v64h-128v64h192zM253.871 904.584v-801.516h50.671c13.935 0 22.802-3.904 26.603-11.718s1.477-17.206-6.967-28.187l-79.808-102.609c-8.444-10.98-18.792-16.468-31.037-16.468s-22.592 5.487-31.036 16.468l-79.808 102.609c-8.444 10.98-10.768 20.373-6.967 28.187s12.668 11.718 26.603 11.718h50.671v801.516z" />
<glyph unicode="&#xe652;" glyph-name="ordered-list-restart" d="M793.348 118.857h230.652v-128h-230.652v128zM793.348 502.857h230.652v-128h-230.652v128zM793.348 886.857h230.652v-128h-230.652v128zM647.049 950.857v-256h-64v192h-64v64h128zM583.049 424.857v-50h128v-64h-192v146l128 60v50h-128v64h192v-146l-128-60zM711.049 246.857v-320h-192v64h128v64h-128v64h128v64h-128v64h192zM0 871.814h243.571v50.671c0 13.935 3.904 22.802 11.718 26.603s17.206 1.477 28.187-6.967l102.609-79.808c10.98-8.444 16.468-18.791 16.468-31.036s-5.487-22.592-16.468-31.036l-102.609-79.808c-10.98-8.444-20.373-10.768-28.187-6.968-7.813 3.801-11.718 12.668-11.718 26.603v50.672h-243.571z" />
<glyph unicode="&#xe653;" glyph-name="panviva-logo-background" d="M1025.934 440.1c0-278.641-225.884-504.525-504.525-504.525s-504.525 225.884-504.525 504.525c0 278.641 225.884 504.525 504.525 504.525s504.525-225.884 504.525-504.525z" />
<glyph unicode="&#xe654;" glyph-name="panviva-logo-left" d="M613.002 936.125c0 0-463.168 96.232-590.356-391.945 0 0-77.479-263.151 159.825-486.427 0 0 339.362-312.724 705.904 32.729 0 0-367.209-168.119-586.542 203.881 0 0-140.667 247.994 69.333 501.327 0 0 107.672 120.871 241.836 140.435z" />
<glyph unicode="&#xe655;" glyph-name="panviva-logo-right" d="M648.966 928.497c0 0 331.534-73.806 375.034-446.354 0 0 9.627-160.598-45.937-259.942 0 0-87.835-52.582-205.949-9.713 0 0 121.886 59.369 77.386 215.869 0 0-45.371 131.932-194.936 117.966 0 0-105.064-6.026-149.814-127.496 0 0-154.917 282.197 144.216 509.67z" />
<glyph unicode="&#xe656;" glyph-name="paragraph" d="M364.955 950.857h512v-128h-128v-896h-128v896h-128v-896h-128v512c-141.384 0-256 114.616-256 256s114.616 256 256 256z" />
<glyph unicode="&#xe657;" glyph-name="paragraph-centered" d="M1 886.857h1024v-128h-1024v128zM193 694.857h640v-128h-640v128zM193 310.857h640v-128h-640v128zM1 502.857h1024v-128h-1024v128zM1 118.857h1024v-128h-1024v128z" />
<glyph unicode="&#xe658;" glyph-name="paragraph-force-justified" d="M1 886.857h1024v-128h-1024v128zM0 694.857h1025v-128h-1025v128zM1 310.857h1024v-128h-1024v128zM1 502.857h1024v-128h-1024v128zM1 118.857h1024v-128h-1024v128z" />
<glyph unicode="&#xe659;" glyph-name="paragraph-insert-after" d="M264.954 950.857h512v-128h-128v-896h-128v896h-128v-896h-128v512c-141.383 0-255.999 114.616-255.999 256s114.616 256 255.999 256zM675.969 62.169v77.098h135.621v135.621h76.79v-135.621h135.62v-77.099h-135.62v-135.311h-76.79v135.312h-135.621z" />
<glyph unicode="&#xe65a;" glyph-name="paragraph-insert-before" d="M458 950.857h512v-128h-128v-896h-128v896h-128v-896h-128v512c-141.384 0-255.999 114.616-255.999 256s114.615 256 255.999 256zM8.955 62.169v77.098h135.621v135.621h76.79v-135.621h135.62v-77.099h-135.62v-135.311h-76.79v135.312h-135.621z" />
<glyph unicode="&#xe65b;" glyph-name="paragraph-justified" d="M1 886.857h1024v-128h-1024v128zM0 694.857h1025v-128h-1025v128zM1 310.857h1024v-128h-1024v128zM1 502.857h1024v-128h-1024v128zM1 118.857h527.090v-128h-527.090v128z" />
<glyph unicode="&#xe65c;" glyph-name="paragraph-left" d="M0 886.857h1024v-128h-1024v128zM0 694.857h640v-128h-640v128zM0 310.857h640v-128h-640v128zM0 502.857h1024v-128h-1024v128zM0 118.857h1024v-128h-1024v128z" />
<glyph unicode="&#xe65d;" glyph-name="paragraph-markings" d="M896-73.143h-768c-17.334 0-32.334 6.166-45 18.5s-19 27.5-19 45.5v896c0 17.334 6.334 32.334 19 45s27.666 19 45 19h768c18 0 33.166-6.334 45.5-19s18.5-27.666 18.5-45v-896c0-18-6.166-33.166-18.5-45.5s-27.5-18.5-45.5-18.5zM480 118.857h64c8.668 0 16.168 3.168 22.5 9.5s9.5 13.832 9.5 22.5-3.168 16.168-9.5 22.5-13.832 9.5-22.5 9.5h-64c-8.666 0-16.166-3.168-22.5-9.5s-9.5-13.832-9.5-22.5 3.166-16.168 9.5-22.5 13.834-9.5 22.5-9.5zM224 118.857h128c8.666 0 16.166 3.168 22.5 9.5s9.5 13.832 9.5 22.5-3.166 16.168-9.5 22.5-13.834 9.5-22.5 9.5h-128c-8.666 0-16.166-3.168-22.5-9.5s-9.5-13.832-9.5-22.5 3.166-16.168 9.5-22.5 13.834-9.5 22.5-9.5zM224 310.857h320c8.668 0 16.168 3.168 22.5 9.5s9.5 13.832 9.5 22.5-3.168 16.168-9.5 22.5-13.832 9.5-22.5 9.5h-320c-8.666 0-16.166-3.168-22.5-9.5s-9.5-13.832-9.5-22.5 3.166-16.168 9.5-22.5 13.834-9.5 22.5-9.5zM224 502.857h128c8.666 0 16.166 3.166 22.5 9.5s9.5 13.834 9.5 22.5-3.166 16.166-9.5 22.5-13.834 9.5-22.5 9.5h-128c-8.666 0-16.166-3.166-22.5-9.5s-9.5-13.834-9.5-22.5 3.166-16.166 9.5-22.5 13.834-9.5 22.5-9.5zM480 758.857h-256c-8.666 0-16.166-3.166-22.5-9.5s-9.5-13.834-9.5-22.5 3.166-16.166 9.5-22.5 13.834-9.5 22.5-9.5h256c8.666 0 16.166 3.166 22.5 9.5s9.5 13.834 9.5 22.5-3.166 16.166-9.5 22.5-13.834 9.5-22.5 9.5zM800 758.857h-192c-8.666 0-16.168-3.166-22.5-9.5s-9.5-13.834-9.5-22.5 3.168-16.166 9.5-22.5 13.834-9.5 22.5-9.5h192c8.666 0 16.166 3.166 22.5 9.5s9.5 13.834 9.5 22.5-3.166 16.166-9.5 22.5-13.834 9.5-22.5 9.5zM800 566.857h-320c-8.666 0-16.166-3.166-22.5-9.5s-9.5-13.834-9.5-22.5 3.166-16.166 9.5-22.5 13.834-9.5 22.5-9.5h320c8.666 0 16.166 3.166 22.5 9.5s9.5 13.834 9.5 22.5-3.166 16.166-9.5 22.5-13.834 9.5-22.5 9.5zM800 374.857h-128c-8.666 0-16.166-3.168-22.5-9.5s-9.5-13.832-9.5-22.5 3.166-16.168 9.5-22.5 13.834-9.5 22.5-9.5h128c8.666 0 16.166 3.168 22.5 9.5s9.5 13.832 9.5 22.5-3.166 16.168-9.5 22.5-13.834 9.5-22.5 9.5zM800 182.857h-128c-8.666 0-16.166-3.168-22.5-9.5s-9.5-13.832-9.5-22.5 3.166-16.168 9.5-22.5 13.834-9.5 22.5-9.5h128c8.666 0 16.166 3.168 22.5 9.5s9.5 13.832 9.5 22.5-3.166 16.168-9.5 22.5-13.834 9.5-22.5 9.5z" />
<glyph unicode="&#xe65e;" glyph-name="paragraph-right" d="M1 886.857h1024v-128h-1024v128zM385 694.857h640v-128h-640v128zM385 310.857h640v-128h-640v128zM1 502.857h1024v-128h-1024v128zM1 118.857h1024v-128h-1024v128z" />
<glyph unicode="&#xe65f;" glyph-name="paste" d="M799 630.857v160c0 17.6-14.4 32-32 32h-224v64c0 35.2-28.8 64-64 64h-128c-35.204 0-64-28.8-64-64v-64h-224c-17.602 0-32-14.4-32-32v-640c0-17.6 14.398-32 32-32h288v-192h448l192 192v512h-192zM351 886.743c0.034 0.038 0.072 0.078 0.114 0.114h127.768c0.042-0.036 0.082-0.076 0.118-0.114v-63.886h-128v63.886zM159 694.857v64h512v-64h-512zM799 17.367v101.49h101.49l-101.49-101.49zM927 182.857h-192v-192h-320v576h512v-384z" />
<glyph unicode="&#xe660;" glyph-name="pencil" d="M384 310.857l128 64 448 448-64 64-448-448-64-128zM289.3 83.759c-31.632 66.728-65.666 100.762-132.396 132.394l99.096 272.792 128 77.912 384 384h-192l-384-384-192-640 640 192 384 384v192l-384-384-77.912-128z" />
<glyph unicode="&#xe661;" glyph-name="pencil-2" d="M280.429 73.143l52 52-134.286 134.286-52-52v-61.143h73.143v-73.143h61.143zM579.286 603.428q0 12.571-12.571 12.571-5.714 0-9.714-4l-309.714-309.714q-4-4-4-9.714 0-12.571 12.571-12.571 5.714 0 9.714 4l309.714 309.714q4 4 4 9.714zM548.429 713.143l237.714-237.714-475.429-475.429h-237.714v237.714zM938.714 658.286q0-30.286-21.143-51.429l-94.857-94.857-237.714 237.714 94.857 94.286q20.571 21.714 51.429 21.714 30.286 0 52-21.714l134.286-133.714q21.143-22.286 21.143-52z" />
<glyph unicode="&#xe662;" glyph-name="pencil-edit" d="M864 950.857c88.364 0 160-71.634 160-160 0-36.020-11.91-69.258-32-96l-64-64-224 224 64 64c26.742 20.090 59.978 32 96 32zM64 214.857l-64-288 288 64 592 592-224 224-592-592zM715.578 587.279l-448-448-55.156 55.156 448 448 55.156-55.156z" />
<glyph unicode="&#xe663;" glyph-name="pointer" d="M814 313.857h-254l142-296c8-16 9-32.166 3-48.5s-17.166-28.334-33.5-36-32.834-8.5-49.5-2.5-29 16.666-37 32l-136 285-192-192c-18 0-33.334 6.334-46 19s-19 27.666-19 45v807c0 10 5.834 17 17.5 21s25.166 4 40.5 0 28.334-11 39-21l516-516c8.666-8.668 15.834-20.668 21.5-36s7.666-29.332 6-42-7.834-19-18.5-19z" />
<glyph unicode="&#xe664;" glyph-name="popup" d="M894.993 854.848h-767.138c-70.319 0-127.855-57.535-127.855-127.856v-447.498c0-70.318 57.536-127.854 127.855-127.854h255.712l255.713-191.787v191.787h255.712c70.32 0 127.855 57.535 127.855 127.854v447.498c0.002 70.321-57.534 127.856-127.854 127.856v0z" />
<glyph unicode="&#xe665;" glyph-name="print" d="M255.929 73.143h512v146.286h-512v-146.286zM255.929 438.857h512v219.429h-91.429q-22.857 0-38.857 16t-16 38.857v91.429h-365.714v-365.714zM914.214 402.286q0 14.857-10.857 25.714t-25.714 10.857-25.714-10.857-10.857-25.714 10.857-25.714 25.714-10.857 25.714 10.857 10.857 25.714zM987.357 402.286v-237.714q0-7.429-5.429-12.857t-12.857-5.429h-128v-91.429q0-22.857-16-38.857t-38.857-16h-548.571q-22.857 0-38.857 16t-16 38.857v91.429h-128q-7.429 0-12.857 5.429t-5.429 12.857v237.714q0 45.143 32.286 77.429t77.429 32.286h36.571v310.857q0 22.857 16 38.857t38.857 16h384q22.857 0 50.286-11.429t43.429-27.429l86.857-86.857q16-16 27.429-43.429t11.429-50.286v-146.286h36.571q45.143 0 77.429-32.286t32.286-77.429z" />
<glyph unicode="&#xe666;" glyph-name="properties" d="M512 950.857c-282.77 0-512-229.23-512-512s229.23-512 512-512 512 229.23 512 512-229.23 512-512 512zM512 22.857c-229.75 0-416 186.25-416 416s186.25 416 416 416 416-186.25 416-416-186.25-416-416-416zM448 694.857h128v-128h-128v128zM640 182.857h-256v64h64v192h-64v64h192v-256h64v-64z" />
<glyph unicode="&#xe667;" glyph-name="quicklinks-grid" d="M420.843 861.633l2.442-297.688c0.35-46.968-36.979-84.667-83.499-84.195l-42.051 0.431-0.676 85.017c23.21-0.19 41.93 18.643 41.702 42.096l-1.743 212.636c-0.215 23.509-19.206 42.709-42.401 42.958l-168.387 1.623c-23.267 0.206-41.93-18.644-41.701-42.096l1.745-212.635c0.177-23.532 19.169-42.731 42.4-42.96l0.676-85.016-42.051 0.432c-46.499 0.435-84.504 38.87-84.853 85.838l-2.443 297.687c-0.37 47.006 36.978 84.666 83.478 84.233l252.489-2.486c46.499-0.434 84.505-38.869 84.873-85.875v0zM215.638 225.782c-23.267 0.207-42.281 19.442-42.436 42.938l-2.791 340.215c-0.214 23.511 18.486 42.381 41.739 42.116 23.252-0.264 42.281-19.442 42.399-42.958l2.792-340.216c0.228-23.451-18.455-42.264-41.703-42.095v0zM130.787 311.621v0c-23.267 0.206-41.929-18.644-41.76-42.079l1.745-212.637c0.214-23.509 19.205-42.71 42.437-42.935l168.387-1.625c23.231-0.226 41.93 18.642 41.702 42.099l-1.745 212.634c-0.191 23.473-19.206 42.71-42.4 42.959v0l-0.676 85.015 42.050-0.431c46.499-0.434 84.483-38.832 84.851-85.838l2.444-297.689c0.369-47.004-36.979-84.667-83.478-84.232l-252.527 2.462c-46.52 0.474-84.504 38.872-84.873 85.88l-2.441 297.686c-0.37 47.005 36.994 84.725 83.514 84.253l42.051-0.432 0.719-85.090zM588.5 947.857h436.5v-436.5h-436.5v436.5zM588.5 363.357h436.5v-436.5h-436.5v436.5z" />
<glyph unicode="&#xe668;" glyph-name="key2" d="M298 352.857q34 0 60 26t26 60-26 60-60 26-59-26-25-60 25-60 59-26zM540 524.857h442v-172h-86v-170h-170v170h-186q-26-76-92-123t-150-47q-106 0-181 75t-75 181 75 181 181 75q84 0 150-47t92-123z" />
<glyph unicode="&#xe669;" glyph-name="merge" d="M768 246.857h-101.49l-160 160 160 160h101.49v-160l224 224-224 224v-160h-128c-16.974 0-33.252-6.744-45.254-18.746l-178.746-178.744-178.746 178.746c-12 12-28.28 18.744-45.254 18.744h-192v-128h165.49l160-160-160-160h-165.49v-128h192c16.974 0 33.252 6.742 45.254 18.746l178.746 178.744 178.746-178.744c12.002-12.004 28.28-18.746 45.254-18.746h128v-160l224 224-224 224v-160z" />
<glyph unicode="&#xe66a;" glyph-name="out" d="M768 310.857v128h-320v128h320v128l192-192zM704 374.857v-256h-320v-192l-384 192v832h704v-320h-64v256h-512l256-128v-576h256v192z" />
<glyph unicode="&#xe66b;" glyph-name="redo" d="M566 702.485v248.372l384-384-384-384v253.824c-446.75 10.482-427.588-303.792-313.859-509.824-280.713 303.414-221.101 789.57 313.859 775.628z" />
<glyph unicode="&#xe66c;" glyph-name="reference" d="M418.26 605.902l-99.349 99.279-297.838-297.836 297.837-297.834 99.349 99.275-198.558 198.559 198.559 198.557zM616.818 208.786l99.349-99.275 297.833 297.834-297.833 297.836-99.349-99.279 198.553-198.557-198.553-198.559zM663.385 371.179c0-12.008-9.773-21.783-21.712-21.783h-246.174c-11.938 0-21.713 9.775-21.713 21.783v72.33c0 12.008 9.774 21.713 21.713 21.713h246.173c11.938 0 21.712-9.705 21.712-21.713v-72.33z" />
<glyph unicode="&#xe66d;" glyph-name="refresh" d="M874.021 800.877c-92.651 92.656-220.635 149.98-362.021 149.98-219.488 0-406.69-138.128-479.498-332.188l119.876-44.954c54.604 145.546 195.006 249.142 359.622 249.142 106.040 0 202.020-43 271.506-112.494l-143.506-143.506h384v384l-149.979-149.98zM512 54.857c-106.040 0-202.026 42.992-271.512 112.488l143.512 143.512h-384v-384l149.994 149.994c92.646-92.662 220.618-149.994 362.006-149.994 219.49 0 406.692 138.128 479.5 332.188l-119.876 44.953c-54.604-145.545-195.006-249.141-359.624-249.141z" />
<glyph unicode="&#xe66e;" glyph-name="remove-sign" d="M729.714 309.714c0 9.906-3.621 18.478-10.857 25.714l-103.429 103.429 103.429 103.429c7.237 7.239 10.857 15.81 10.857 25.714 0 10.286-3.621 19.047-10.857 26.286l-51.429 51.429c-7.237 7.239-16 10.857-26.286 10.857-9.906 0-18.478-3.618-25.714-10.857l-103.429-103.429-103.429 103.429c-7.239 7.239-15.81 10.857-25.714 10.857-10.286 0-19.047-3.618-26.286-10.857l-51.429-51.429c-7.239-7.239-10.857-16-10.857-26.286 0-9.904 3.618-18.475 10.857-25.714l103.429-103.429-103.429-103.429c-7.239-7.237-10.857-15.808-10.857-25.714 0-10.286 3.618-19.049 10.857-26.286l51.429-51.429c7.239-7.237 16-10.857 26.286-10.857 9.904 0 18.475 3.621 25.714 10.857l103.429 103.429 103.429-103.429c7.237-7.237 15.808-10.857 25.714-10.857 10.286 0 19.049 3.621 26.286 10.857l51.429 51.429c7.237 7.237 10.857 16 10.857 26.286zM950.857 438.857c0-79.621-19.618-153.049-58.857-220.286s-92.475-120.478-159.714-159.714c-67.237-39.237-140.665-58.857-220.286-58.857-79.618 0-153.047 19.621-220.286 58.857s-120.475 92.478-159.714 159.714-58.857 140.665-58.857 220.286c0 79.618 19.618 153.047 58.857 220.286s92.475 120.475 159.714 159.714 140.667 58.857 220.286 58.857c79.621 0 153.049-19.618 220.286-58.857 67.239-39.239 120.475-92.475 159.714-159.714s58.857-140.667 58.857-220.286z" />
<glyph unicode="&#xe66f;" glyph-name="remove-trash" d="M800 822.857h-576c-53.020 0-96-42.98-96-96v-32h768v32c0 53.020-42.98 96-96 96zM632.32 886.857l14.115-101h-268.871l14.113 101h240.643zM640 950.857h-256c-26.4 0-50.99-21.392-54.642-47.538l-18.715-133.924c-3.653-26.146 14.957-47.538 41.357-47.538h320c26.4 0 45.010 21.392 41.358 47.538l-18.713 133.924c-3.655 26.146-28.245 47.538-54.645 47.538v0 0zM816 630.857h-608c-35.2 0-61.392-28.682-58.206-63.738l52.412-576.526c3.186-35.054 34.594-63.736 69.794-63.736h480c35.2 0 66.608 28.682 69.794 63.736l52.41 576.526c3.188 35.056-23.004 63.738-58.204 63.738v0zM384 54.857h-96l-32 448h128v-448zM576 54.857h-128v448h128v-448zM736 54.857h-96v448h128l-32-448z" />
<glyph unicode="&#xe670;" glyph-name="reusable-content" d="M919.5-73.143h-150v248.423l150 148.492zM253.5 703.253l-150-148.563v395.667h150zM390.097 706.861h237.055v-96.226h-237.055v96.226zM390.097 498.435h237.055v-96.226h-237.055v96.226zM390.097 290.008h237.055v-96.226h-237.055v96.226zM1024 540.233h-103.475v308.224c0 56.525-45.875 102.4-102.4 102.4h-596.958l29.333-143.36h518.524v-267.264h-103.424l179.2-203.776 179.2 203.776zM254.976 70.217v267.264h103.424l-179.2 203.776-179.2-203.776h103.424v-308.224c0-56.525 45.824-102.4 102.4-102.4h595.343l6 143.36h-552.191z" />
<glyph unicode="&#xe671;" glyph-name="version" d="M1024 630.857l-512 256-512-256 512-256 512 256zM512 801.887l342.058-171.030-342.058-171.030-342.058 171.030 342.058 171.030zM921.444 490.135l102.556-51.278-512-256-512 256 102.556 51.278 409.444-204.722zM921.444 298.135l102.556-51.278-512-256-512 256 102.556 51.278 409.444-204.722z" />
<glyph unicode="&#xe672;" glyph-name="revert-repeat-clear-refresh" d="M5.095 473.277c6.486 15.673 17.832 23.235 34.044 22.697l104.971 0.405c1.623 56.201 13.511 110.375 35.665 162.523 22.156 52.146 53.093 98.081 92.813 137.799 42.15 42.15 90.652 74.168 145.5 96.054 54.85 21.884 110.106 32.828 165.765 32.828s110.917-10.942 165.765-32.828c54.85-21.889 103.35-53.904 145.5-96.054s74.167-90.653 96.053-145.5c21.889-54.85 32.83-110.107 32.83-165.766 0.002-55.661-10.941-110.917-32.83-165.764-21.883-54.85-53.902-103.35-96.053-145.5-46.474-46.471-100.443-80.855-161.914-103.146-61.47-22.293-124.765-30.33-189.88-24.115-4.863 0.539-8.917 2.566-12.158 6.078-3.241 3.514-4.729 7.566-4.459 12.16l-0.405 111.455c0.541 5.404 2.701 9.996 6.484 13.781 4.864 3.779 9.594 5.268 14.186 4.457 45.392-5.947 89.437-1.621 132.126 12.971 42.69 14.588 80.112 37.961 112.266 70.115 28.102 28.1 49.445 60.387 64.036 96.865 14.591 36.475 21.886 73.356 21.886 110.643s-7.295 74.169-21.886 110.646c-14.591 36.476-35.935 68.763-64.036 96.865-28.101 28.1-60.389 49.445-96.865 64.036-36.475 14.59-73.357 21.885-110.645 21.885s-74.168-7.295-110.646-21.885c-36.476-14.591-68.764-35.936-96.864-64.036-54.31-54.309-82.951-119.968-85.922-196.973h111.861c16.48 0.269 27.695-7.159 33.639-22.292 6.214-15.401 3.647-28.775-7.701-40.122l-181.57-181.572c-7.026-7.025-15.672-10.539-25.939-10.539-10.264 0-18.912 3.514-25.938 10.539l-181.573 181.573c-11.349 11.347-14.049 24.586-8.106 39.717z" />
<glyph unicode="&#xe673;" glyph-name="right-to-left" d="M128 668.857h128v-192h64v384c0 35.2-28.798 64-64 64h-128c-35.2 0-64-28.8-64-64v-384h64v192zM128 860.857h128v-128h-128v128zM960 860.857v64h-192c-35.202 0-64-28.8-64-64v-320c0-35.202 28.798-64 64-64h192v64h-192v320h192zM640 764.857v96c0 35.2-28.798 64-64 64h-192v-448h192c35.202 0 64 28.798 64 64v96c0 35.2-8.798 64-44 64 35.2 0 44 28.8 44 64zM576 540.857h-128v128h128v-128zM576 732.857h-128v128h128v-128zM373.818 371.483l-68.338 68.34-241.48-241.484 241.48-241.482 68.338 68.34-124.844 124.846h713.026v96.592h-713.026l124.844 124.848z" />
<glyph unicode="&#xe674;" glyph-name="save" d="M900 950.857h-896v-1024h1024v896l-128 128zM516 822.857h128v-256h-128v256zM900 54.857h-768v768h64v-320h576v320h74.979l53.021-53.018v-714.982z" />
<glyph unicode="&#xe675;" glyph-name="search-binoculars" d="M64 950.857h384v-64h-384v64zM576 950.857h384v-64h-384v64zM952 630.857h-56v256h-256v-256h-256v256h-256v-256h-56c-39.6 0-72-32.4-72-72v-560c0-39.6 32.4-72 72-72h304c39.6 0 72 32.4 72 72v376h128v-376c0-39.6 32.4-72 72-72h304c39.6 0 72 32.4 72 72v560c0 39.6-32.4 72-72 72zM348-9.143h-248c-19.8 0-36 14.4-36 32s16.2 32 36 32h248c19.8 0 36-14.4 36-32s-16.2-32-36-32zM544 438.857h-64c-17.6 0-32 14.4-32 32s14.4 32 32 32h64c17.6 0 32-14.4 32-32s-14.4-32-32-32zM924-9.143h-248c-19.8 0-36 14.4-36 32s16.2 32 36 32h248c19.8 0 36-14.4 36-32s-16.2-32-36-32z" />
<glyph unicode="&#xe676;" glyph-name="search-clear" d="M992.262 79.461l-242.55 206.294c-25.074 22.565-51.892 32.926-73.554 31.926 57.256 67.068 91.842 154.078 91.842 249.176 0 212.078-171.922 384-384 384-212.076 0-384-171.922-384-384s171.922-384 384-384c95.1 0 182.108 34.586 249.178 91.844-1-21.662 9.358-48.479 31.926-73.553l206.292-242.551c35.321-39.246 93.021-42.554 128.22-7.354 35.198 35.194 31.894 92.895-7.354 128.218v0zM384 310.857c-141.384 0-256 114.614-256 256 0 141.384 114.616 256 256 256 141.386 0 256-114.616 256-256s-114.614-256-256-256zM561.259 438.251l-41.025-41.024c-5.698-5.697-12.536-8.549-20.515-8.548s-14.814 2.85-20.515 8.548l-88.891 88.892-88.892-88.892c-5.696-5.697-12.537-8.548-20.512-8.548-7.977 0-14.816 2.851-20.514 8.548l-41.027 41.026c-5.698 5.698-8.547 12.536-8.547 20.513 0 7.979 2.849 14.816 8.547 20.515l88.892 88.892-88.892 88.894c-5.698 5.697-8.547 12.536-8.547 20.514 0 7.977 2.849 14.815 8.547 20.513l41.027 41.026c5.697 5.699 12.536 8.547 20.514 8.547 7.977 0 14.814-2.849 20.512-8.547l88.892-88.894 88.891 88.894c5.699 5.699 12.536 8.547 20.515 8.547s14.816-2.849 20.515-8.547l41.025-41.026c5.696-5.696 8.549-12.536 8.547-20.513 0-7.978-2.849-14.816-8.547-20.514l-88.892-88.894 88.892-88.892c5.698-5.698 8.547-12.534 8.547-20.515 0-7.979-2.849-14.815-8.547-20.515z" />
<glyph unicode="&#xe677;" glyph-name="search-magnifying" d="M992.262 79.461l-242.552 206.294c-25.074 22.565-51.89 32.926-73.552 31.926 57.256 67.068 91.842 154.078 91.842 249.176 0 212.078-171.922 384-384 384-212.076 0-384-171.922-384-384s171.922-384 384-384c95.098 0 182.108 34.586 249.176 91.844-1-21.662 9.36-48.478 31.926-73.552l206.294-242.552c35.321-39.246 93.021-42.554 128.22-7.356s31.892 92.898-7.354 128.22v0zM384 310.857c-141.384 0-256 114.616-256 256s114.616 256 256 256 256-114.616 256-256-114.614-256-256-256z" />
<glyph unicode="&#xe678;" glyph-name="zoom-out" d="M621.714 493.714v-36.571q0-7.429-5.429-12.857t-12.857-5.429h-329.143q-7.429 0-12.857 5.429t-5.429 12.857v36.571q0 7.429 5.429 12.857t12.857 5.429h329.143q7.429 0 12.857-5.429t5.429-12.857zM694.857 475.428q0 105.714-75.143 180.857t-180.857 75.143-180.857-75.143-75.143-180.857 75.143-180.857 180.857-75.143 180.857 75.143 75.143 180.857zM987.429 0q0-30.286-21.429-51.714t-51.714-21.429q-30.857 0-51.429 21.714l-196 195.429q-102.286-70.857-228-70.857-81.714 0-156.286 31.714t-128.571 85.714-85.714 128.571-31.714 156.286 31.714 156.286 85.714 128.571 128.571 85.714 156.286 31.714 156.286-31.714 128.571-85.714 85.714-128.571 31.714-156.286q0-125.714-70.857-228l196-196q21.143-21.143 21.143-51.429z" />
<glyph unicode="&#xe679;" glyph-name="zoom-in" d="M621.714 493.714v-36.571q0-7.429-5.429-12.857t-12.857-5.429h-128v-128q0-7.429-5.429-12.857t-12.857-5.429h-36.571q-7.429 0-12.857 5.429t-5.429 12.857v128h-128q-7.429 0-12.857 5.429t-5.429 12.857v36.571q0 7.429 5.429 12.857t12.857 5.429h128v128q0 7.429 5.429 12.857t12.857 5.429h36.571q7.429 0 12.857-5.429t5.429-12.857v-128h128q7.429 0 12.857-5.429t5.429-12.857zM694.857 475.428q0 105.714-75.143 180.857t-180.857 75.143-180.857-75.143-75.143-180.857 75.143-180.857 180.857-75.143 180.857 75.143 75.143 180.857zM987.429 0q0-30.286-21.429-51.714t-51.714-21.429q-30.857 0-51.429 21.714l-196 195.429q-102.286-70.857-228-70.857-81.714 0-156.286 31.714t-128.571 85.714-85.714 128.571-31.714 156.286 31.714 156.286 85.714 128.571 128.571 85.714 156.286 31.714 156.286-31.714 128.571-85.714 85.714-128.571 31.714-156.286q0-125.714-70.857-228l196-196q21.143-21.143 21.143-51.429z" />
<glyph unicode="&#xe67a;" glyph-name="clock" d="M534 652.857v-224l192-114-32-54-224 136v256h64zM512 96.857q140 0 241 101t101 241-101 241-241 101-241-101-101-241 101-241 241-101zM512 864.857q176 0 301-125t125-301-125-301-301-125-301 125-125 301 125 301 301 125z" />
<glyph unicode="&#xe67b;" glyph-name="secondary-window" d="M498.405 311.486l255.856-255.857-128.82-128.772 397.020 2.347-0.204 394.419-132.085-132.085-255.807 255.856-135.96-135.908zM1023.991 844.924c0 56.303-45.694 101.997-101.997 101.997h-815.968c-56.302 0-101.996-45.694-101.996-101.997v-815.967c0-56.303 45.694-101.996 101.996-101.996h356.986l101.996 101.995-456.84 2.040-0.816 814.594 816.735-0.46-1.785-459.341 97.915 99.295 3.774 359.84z" />
<glyph unicode="&#xe67c;" glyph-name="section" d="M0 746.361v-819.504h1025v819.504h-1025zM913.359 40.497h-798.079v609.060h798.080v-609.060zM220.291 506.539h612.061v-114.011h-612.061v114.011zM217.29 276.516h612.062v-114.012h-612.062v114.012zM391.308 736.566h-391.308v214.291h391.307v-214.291zM253.294 877.58h-135.013v-123.012h135.013v123.012zM373.306 856.578h650.694v-129.013h-650.694v129.013z" />
<glyph unicode="&#xe67d;" glyph-name="thumbs-down" d="M182.857 621.714q0-14.857-10.857-25.714t-25.714-10.857q-15.429 0-26 10.857t-10.571 25.714q0 15.429 10.571 26t26 10.571q14.857 0 25.714-10.571t10.857-26zM274.286 329.143v365.714q0 14.857-10.857 25.714t-25.714 10.857h-164.571q-14.857 0-25.714-10.857t-10.857-25.714v-365.714q0-14.857 10.857-25.714t25.714-10.857h164.571q14.857 0 25.714 10.857t10.857 25.714zM919.429 414.286q31.429-34.857 31.429-85.143-0.571-44.571-32.857-77.143t-76.857-32.571h-158.286q2.286-8 4.571-13.714t6.286-12.571 5.714-10.286q10.286-21.143 15.429-32.571t10.857-33.429 5.714-43.714q0-13.714-0.286-22.286t-2.857-25.714-6.857-28.571-13.714-25.714-22.857-23.143-34.286-14.857-47.143-6q-14.857 0-25.714 10.857-11.429 11.429-19.429 28.571t-11.143 29.714-7.143 34.857q-5.143 24-7.714 34.571t-10 27.714-17.714 27.429q-18.857 18.857-57.714 68.571-28 36.571-57.714 69.143t-43.429 33.714q-14.286 1.143-24.571 11.714t-10.286 24.857v366.286q0 14.857 10.857 25.429t25.714 11.143q20 0.571 90.286 25.143 44 14.857 68.857 22.571t69.429 16.571 82.286 8.857h73.714q76-1.143 112.571-44.571 33.143-39.429 28-103.429 22.286-21.143 30.857-53.714 9.714-34.857 0-66.857 26.286-34.857 24.571-78.286 0-18.286-8.571-43.429z" />
<glyph unicode="&#xe67e;" glyph-name="eye" d="M512 758.857c-223.318 0-416.882-130.042-512-320 95.118-189.958 288.682-320 512-320 223.314 0 416.878 130.042 512 320-95.116 189.958-288.686 320-512 320zM764.45 589.153c60.162-38.374 111.142-89.774 149.434-150.296-38.292-60.522-89.274-111.922-149.436-150.298-75.594-48.216-162.89-73.702-252.448-73.702-89.56 0-176.856 25.486-252.45 73.704-60.16 38.372-111.14 89.772-149.434 150.296 38.292 60.524 89.274 111.924 149.434 150.296 3.918 2.5 7.876 4.922 11.858 7.3-9.958-27.328-15.408-56.822-15.408-87.596 0-141.384 114.616-256 256-256s256 114.616 256 256c0 30.774-5.45 60.268-15.408 87.598 3.98-2.378 7.938-4.802 11.858-7.302zM512 540.857c0-53.020-42.98-96-96-96s-96 42.98-96 96 42.98 96 96 96 96-42.98 96-96z" />
<glyph unicode="&#xe67f;" glyph-name="findWithin" d="M470.773 96.194c12.101 9.973 46.522 8.009 32.931 33.445zM506.020 66.124c20.761-26.603 45.791-20.111 45.791-20.111 31.752 0 54.871 24.488 54.871 24.488 33.188 41.82 85.172 44.097 85.172 44.097h291.060c38.244 0 37.511 30.327 37.511 30.327v439.018c0 41.847-45.505 35.397-45.505 35.397v135.761c0 36.78-45.831 32.605-45.831 32.605-276.209-9.608-376.22-124.674-376.22-124.674-181.225 142.97-372.208 123.821-372.208 123.821-49.856 0-46.97-31.794-46.97-31.794v-130.692c-49.801 0-48.352-44.042-48.352-44.042v-154.814c23.241 35.533 54.437 65.305 90.986 87.124v215.362c0 0 2.141 24.908 27.090 24.908 0 0 279.407-43.311 332.503-152.701v-151.533c9.284-11.438 17.522-23.729 24.894-36.496v189.087c0 0 127.804 129.988 324.926 141.913 0 0 50.941 12.968 50.941-34.68v-450.565c0 0 6.478-36.831-41.169-36.831 0 0-163.582-1.098-288.136-94.225 0 0-24.583-32.482-50.739-32.482 0 0-6.329-3.442-19.701 4.377l-33.228 30.871c30.775 38.527 49.178 87.396 49.178 140.543 0 124.365-100.865 225.228-225.31 225.228-124.375 0-225.241-100.864-225.241-225.228 0-41.346 11.099-80.090 30.492-113.359l-118.309-104.335c0 0-35.194-33.46 0-68.748l27.361-30.654c0 0 35.438-39.151 72.271 0l99.17 124.023 6.41-4.796c32.049-17.509 68.775-27.484 107.843-27.484 54.383 0 104.28 19.27 143.201 51.361l35.248-30.070zM170.835 270.821c0 88.328 71.634 159.923 159.882 159.923 88.384 0 159.963-71.594 159.963-159.923s-71.58-159.881-159.963-159.881c-88.249 0-159.882 71.552-159.882 159.881z" />
<glyph unicode="&#xe680;" glyph-name="flag" d="M832 778.551c76.466 0 145.092 41.622 192 73.106v-595.69c-46.908-31.486-115.534-73.11-192-73.11s-145.092 22.67-192 54.156c-46.908 31.48-115.534 54.15-192 54.15s-145.090-38.916-192-70.396v595.69c46.91 31.484 115.534 70.4 192 70.4s145.092-22.668 192-54.152c46.908-31.484 115.534-54.154 192-54.154zM128 950.857c35.346 0 64-28.654 64-64v-960h-128v960c0 35.346 28.654 64 64 64z" />
<glyph unicode="&#xe681;" glyph-name="folder-add" d="M896 54.857h-64v-64c0-18-6.166-33.166-18.5-45.5s-27.5-18.5-45.5-18.5h-128c-17.334 0-32.334 6.166-45 18.5-12.668 12.334-19 27.5-19 45.5v64h-448c-35.334 0-65.5 12.5-90.5 37.5s-37.5 55.168-37.5 90.5v512c0 17.334 6.334 32.334 19 45s27.666 19 45 19h480l46 84c6 10.666 16 20.666 30 30s28 14 42 14h240c16 0 31-4.166 45-12.5s23.334-18.834 28-31.5c32.666-44.666 49-72.666 49-84v-576c0-35.332-12.5-65.5-37.5-90.5s-55.166-37.5-90.5-37.5zM896 310.857h-128v128c0 17.334-6.334 32.334-19 45s-27.834 19-45.5 19-32.666-6.334-45-19-18.5-27.666-18.5-45v-128h-128c-18 0-33.166-6.332-45.5-19s-18.5-27.832-18.5-45.5 6.166-32.668 18.5-45 27.5-18.5 45.5-18.5h128v-128c0-18 6.166-33.166 18.5-45.5s27.334-18.5 45-18.5 32.834 6.166 45.5 18.5 19 27.5 19 45.5v128h128c17.334 0 32.334 6.168 45 18.5s19 27.332 19 45-6.334 32.832-19 45.5-27.666 19-45 19zM46 906.857c4.666 12.666 14 23.166 28 31.5s28.666 12.5 44 12.5h240c16 0 31-4.166 45-12.5s23.666-18.834 29-31.5l48-84h-480l46 84z" />
<glyph unicode="&#xe682;" glyph-name="folder-closed" d="M0 630.857h1024l-64-640h-896l-64 640zM928 758.857l32-64h-896l64 128h352l32-64h416z" />
<glyph unicode="&#xe683;" glyph-name="folder-delete" d="M988 93.857c6-23.334 1-43.334-15-60l-90-89c-16.666-16.666-37-22-61-16-24-6-44.334-0.666-61 16l-89 89-90-89c-16.668-16.666-37-22-61-16-24-6-44.334-0.666-61 16l-90 89c-4.666 5.334-8.666 11.666-12 19h-230c-35.334 0-65.5 12.5-90.5 37.5s-37.5 55.168-37.5 90.5v512c0 18 6.334 33.166 19 45.5s27.666 18.5 45 18.5h480l46 85c6 10.666 16 20.5 30 29.5s28 13.5 42 13.5h240c16 0 31-4.166 45-12.5s23.334-18.5 28-30.5c32.666-45.334 49-73.666 49-85v-576c0-32.668-12-61.668-36-87zM878 332.857c12 12 18 26.5 18 43.5s-6 31.5-18 43.5-26.5 18-43.5 18-31.5-6-43.5-18l-119-119-120 119c-12 12-26.5 18-43.5 18s-31.5-6-43.5-18-18-26.5-18-43.5 6-31.5 18-43.5l119-119-119-119c-12-12-18-26.5-18-43.5s6-31.5 18-43.5 26.5-18 43.5-18 31.5 6 43.5 18l120 119 119-119c12-12 26.5-18 43.5-18s31.5 6 43.5 18 18 26.5 18 43.5-6 31.5-18 43.5l-119 119 119 119zM46 905.857c4.666 12 14 22.166 28 30.5s28.666 12.5 44 12.5h240c16 0 31-4.166 45-12.5s23.666-18.5 29-30.5l48-85h-480l46 85z" />
<glyph unicode="&#xe684;" glyph-name="folder-opened" d="M832-9.143l192 512h-832l-192-512h832zM128 566.857l-128-576v832h288l128-128h416v-128h-704z" />
<glyph unicode="&#xe685;" glyph-name="header" d="M493.339 950.857h530.661v-382.307h-530.661v382.307zM493.317 234.367h530.683v-112.105h-530.683v112.105zM493.317 442.367h530.683v-112.105h-530.683v112.105zM493.317 38.963h530.683v-112.106h-530.683v112.106zM192.268 571.936h-188.268v90.712h27.006v197.497h-27.52v90.712h188.782v-90.712h-22.891v-57.75h82.817v57.75h-23.147v90.712h188.523v-90.712h-27.005v-197.496h27.005v-90.712h-188.524v90.712h23.147v62.108h-82.817v-62.109h22.891v-90.712z" />
<glyph unicode="&#xe686;" glyph-name="home" d="M1024 360.413l-512 397.426-512-397.428v162.038l512 397.426 512-397.428v-162.034zM896 374.857v-384h-256v256h-256v-256h-256v384l384 288 384-288z" />
<glyph unicode="&#xe687;" glyph-name="panviva-logo" d="M1025.934 437.589c0-280.151-227.103-507.255-507.251-507.255-280.15 0-507.257 227.104-507.257 507.255 0 280.147 227.107 507.254 507.257 507.254 280.148 0 507.251-227.107 507.251-507.254zM910 114.439l23 30.333c0 0 24 38.752 29.167 46.835s15.896 30.594 15.896 30.594c-107.529-52.312-205.949-9.713-205.949-9.713 62.481 31.969 82.826 106.077 82.826 106.077 33.418 170.011-117.7 220.867-117.7 220.867-180.185 46.497-232.49-120.605-232.49-120.605-145.312 321.13 144.215 509.67 144.215 509.67l-35.964 7.628c-202.884-41.961-357.458-224.37-357.458-439.687 0-246.443 199.781-446.224 446.227-446.224 64.333 0 133.111 12.13 186.605 40.268l21.625 23.957z" />
<glyph unicode="&#xe688;" glyph-name="thumbs-up" d="M182.857 182.857q0 14.857-10.857 25.714t-25.714 10.857q-15.429 0-26-10.857t-10.571-25.714q0-15.429 10.571-26t26-10.571q14.857 0 25.714 10.571t10.857 26zM274.286 475.428v-365.714q0-14.857-10.857-25.714t-25.714-10.857h-164.571q-14.857 0-25.714 10.857t-10.857 25.714v365.714q0 14.857 10.857 25.714t25.714 10.857h164.571q14.857 0 25.714-10.857t10.857-25.714zM950.857 475.428q0-49.143-31.429-85.143 8.571-25.143 8.571-43.429 1.714-43.429-24.571-78.286 9.714-32 0-66.857-8.571-32.571-30.857-53.714 5.143-64-28-103.429-36.571-43.429-112.571-44.571h-73.714q-37.714 0-82.286 8.857t-69.429 16.571-68.857 22.571q-70.286 24.571-90.286 25.143-14.857 0.571-25.714 11.143t-10.857 25.429v366.286q0 14.286 10.286 24.857t24.571 11.714q13.714 1.143 43.429 33.714t57.714 69.143q38.857 49.714 57.714 68.571 10.286 10.286 17.714 27.429t10 27.714 7.714 34.571q4 22.286 7.143 34.857t11.143 29.714 19.429 28.571q10.857 10.857 25.714 10.857 26.286 0 47.143-6t34.286-14.857 22.857-23.143 13.714-25.714 6.857-28.571 2.857-25.714 0.286-22.286q0-21.714-5.429-43.429t-10.857-34.286-15.714-32q-1.714-3.429-5.714-10.286t-6.286-12.571-4.571-13.714h158.286q44.571 0 77.143-32.571t32.571-77.143z" />
<glyph unicode="&#xe689;" glyph-name="expand-diagonal" d="M431.429 347.428q0-7.429-5.714-13.143l-189.714-189.714 82.286-82.286q10.857-10.857 10.857-25.714t-10.857-25.714-25.714-10.857h-256q-14.857 0-25.714 10.857t-10.857 25.714v256q0 14.857 10.857 25.714t25.714 10.857 25.714-10.857l82.286-82.286 189.714 189.714q5.714 5.714 13.143 5.714t13.143-5.714l65.143-65.143q5.714-5.714 5.714-13.143zM877.714 841.143v-256q0-14.857-10.857-25.714t-25.714-10.857-25.714 10.857l-82.286 82.286-189.714-189.714q-5.714-5.714-13.143-5.714t-13.143 5.714l-65.143 65.143q-5.714 5.714-5.714 13.143t5.714 13.143l189.714 189.714-82.286 82.286q-10.857 10.857-10.857 25.714t10.857 25.714 25.714 10.857h256q14.857 0 25.714-10.857t10.857-25.714z" />
<glyph unicode="&#xe68a;" glyph-name="expand-horizontal" d="M1024.498 438.857l-294.156-294.156v226.274h-177.018v135.764h177.018v226.274l294.156-294.156zM475.316 370.975h-181.16v-226.274l-294.156 294.156 294.156 294.156v-226.274h181.16v-135.764z" />
<glyph unicode="&#xe68b;" glyph-name="export-user" d="M1024-39.143c0-8-7.167-14.5-21.5-19.5s-35.333-8.5-63-10.5-50.5-3.167-68.5-3.5-41.667-0.5-71-0.5-53 0.167-71 0.5-40.833 1.5-68.5 3.5-48.667 5.5-63 10.5-21.5 11.5-21.5 19.5c0.667 28 16 53 46 75s68 37 114 45v20c-64 28-96 98-96 210 0 42 15 73.834 45 95.5s68.5 32.5 115.5 32.5 85.333-10.834 115-32.5 44.5-53.5 44.5-95.5c0-115.334-32-185.666-96-211v-19c46.667-8 84.833-23 114.5-45s44.833-47 45.5-75zM224-73.143c-29.333 0-53 0.167-71 0.5s-40.833 1.5-68.5 3.5-48.667 5.5-63 10.5-21.5 11.5-21.5 19.5c0.667 28 15.833 53 45.5 75s67.833 37 114.5 45v20c-64 28-96 98-96 210 0 42 14.833 73.834 44.5 95.5s68 32.5 115 32.5 85.5-10.834 115.5-32.5 45-53.5 45-95.5c0-115.334-32-185.666-96-211v-19c46-8 84-23 114-45s45.333-47 46-75c0-8-7.167-14.5-21.5-19.5s-35.333-8.5-63-10.5-50.5-3.167-68.5-3.5-41.667-0.5-71-0.5zM461.979 934.861c13.333 10.667 29.167 16 47.5 16s34.167-5.333 47.5-16l189-150c12.668-10.667 19-23.333 19-38s-6.5-27.167-19.5-37.5-28.666-15.5-47-15.5c-18.332 0-34.166 5.333-47.5 16l-77 61v-205c0-17.333-6.166-32.333-18.5-45-12.332-12.667-27.332-19-45-19s-32.833 6.333-45.5 19-19 27.667-19 45v206l-78-62c-13.333-10.667-29.167-16-47.5-16s-34 5.167-47 15.5-19.5 22.833-19.5 37.5 6.334 27.333 19 38l189 150z" />
<glyph unicode="&#xe68c;" glyph-name="calendar" d="M320 566.857h128v-128h-128zM512 566.857h128v-128h-128zM704 566.857h128v-128h-128zM128 182.857h128v-128h-128zM320 182.857h128v-128h-128zM512 182.857h128v-128h-128zM320 374.857h128v-128h-128zM512 374.857h128v-128h-128zM704 374.857h128v-128h-128zM128 374.857h128v-128h-128zM832 950.857v-64h-128v64h-448v-64h-128v64h-128v-1024h960v1024h-128zM896-9.143h-832v704h832v-704z" />
<glyph unicode="&#xe68d;" glyph-name="camera" d="M512.066 558.339q63.475 0 108.548-45.073t45.073-108.548-45.073-108.548-108.548-45.073-108.548 45.073-45.073 108.548 45.073 108.548 108.548 45.073zM887.582 780.235q56.54 0 96.546-40.005t40.005-96.546v-477.929q0-56.54-40.005-96.546t-96.546-40.005h-751.031q-56.54 0-96.546 40.005t-40.005 96.546v477.929q0 56.54 40.005 96.546t96.546 40.005h119.482l27.204 72.543q10.135 26.137 37.071 45.073t55.207 18.936h273.102q28.271 0 55.207-18.936t37.071-45.073l27.204-72.543h119.482zM512.066 165.755q98.679 0 168.822 70.143t70.143 168.822-70.143 168.822-168.822 70.143-168.822-70.143-70.143-168.822 70.143-168.822 168.822-70.143z" />
<glyph unicode="&#xe68e;" glyph-name="caret-left" d="M694.857 694.857v-512c0-9.906-3.621-18.478-10.857-25.714s-15.808-10.857-25.714-10.857-18.478 3.621-25.714 10.857l-256 256c-7.239 7.237-10.857 15.808-10.857 25.714 0 9.904 3.618 18.475 10.857 25.714l256 256c7.237 7.239 15.808 10.857 25.714 10.857s18.478-3.618 25.714-10.857 10.857-15.81 10.857-25.714z" />
<glyph unicode="&#xe68f;" glyph-name="caret-right" d="M658.286 438.857c0-9.906-3.621-18.478-10.857-25.714l-256-256c-7.239-7.237-15.81-10.857-25.714-10.857s-18.475 3.621-25.714 10.857-10.857 15.808-10.857 25.714v512c0 9.904 3.618 18.475 10.857 25.714s15.81 10.857 25.714 10.857 18.475-3.618 25.714-10.857l256-256c7.237-7.239 10.857-15.81 10.857-25.714z" />
<glyph unicode="&#xe690;" glyph-name="character" d="M760.698 681.648l-38.502-316.268c-2.341-21.048-3.499-39.281-3.499-54.702 0-20.574 9.1-30.858 27.302-30.858 32.66 0 64.862 21.255 96.605 63.782 31.733 42.528 47.605 96.025 47.605 160.517 0 94.387-34.073 172.541-102.209 234.464-68.146 61.909-151.679 92.875-250.616 92.875-106.877 0-197.183-37.802-270.92-113.408-73.747-75.605-110.608-169.412-110.608-281.42 0-103.607 34.412-193.912 103.257-270.919 68.836-77.005 165.793-115.507 290.87-115.507 34.062 0 73.387 3.85 117.959 11.55 44.561 7.702 105.115 30.911 181.661 69.656l46.204-115.509c-112.008-58.335-227.284-87.506-345.824-87.506-104.075 0-195.432 20.893-274.068 62.654-78.647 41.761-141.76 102.788-189.363 183.062-47.603 80.264-71.405 168.013-71.405 263.22 0 144.668 50.635 265.776 151.911 363.325 101.266 97.536 224.016 146.31 368.226 146.31 137.668 0 252.476-43.053 344.425-129.159 91.936-86.106 137.908-189.605 137.908-310.472 0-95.676-28.119-177.353-84.355-245.017-56.246-67.674-123.1-101.508-200.564-101.508-52.744 0-92.648 20.303-119.709 60.905-35.47-42.473-78.646-63.704-129.509-63.704-56.002 0-104.076 24.032-144.209 72.104-40.143 48.062-60.204 111.309-60.204 189.713 0 80.264 22.511 145.842 67.555 196.714 45.034 50.862 99.288 76.306 162.761 76.306 40.603 0 77.464-13.77 110.607-41.304l8.4 30.103h132.308zM493.281 293.122c29.402 0 56.235 15.051 80.506 45.152 24.259 30.102 36.401 69.655 36.401 118.658 0 26.133-8.991 49.462-26.951 70.004-17.971 20.533-39.795 30.803-65.455 30.803-28.47 0-52.044-13.070-70.705-39.204-18.669-26.143-28.001-60.673-28.001-103.607 0-34.544 6.65-63.474 19.951-86.806 13.301-23.342 31.384-35 54.254-35z" />
<glyph unicode="&#xe691;" glyph-name="checkmark-circle" d="M512 950.857c-282.77 0-512-229.23-512-512s229.23-512 512-512 512 229.23 512 512-229.23 512-512 512zM416 118.857l-212 276 94 98 118-150 370 302 46-46-416-480z" />
<glyph unicode="&#xe692;" glyph-name="chevron-down" d="M957.143 548.571c0-20.19-7.047-37.333-21.143-51.429l-372-372c-14.478-14.478-31.808-21.714-52-21.714-20.571 0-37.714 7.237-51.429 21.714l-372 372c-14.475 13.714-21.714 30.857-21.714 51.429 0 20.19 7.239 37.525 21.714 52l42.286 42.857c14.857 14.096 32.19 21.143 52 21.143 20.19 0 37.333-7.047 51.429-21.143l277.714-277.714 277.714 277.714c14.096 14.096 31.239 21.143 51.429 21.143 19.81 0 37.143-7.047 52-21.143l42.857-42.857c14.096-14.857 21.143-32.19 21.143-52z" />
<glyph unicode="&#xe693;" glyph-name="chevron-up" d="M957.143 256c0-20.192-7.047-37.335-21.143-51.429l-42.857-42.857c-14.475-14.478-31.81-21.714-52-21.714-20.571 0-37.714 7.237-51.429 21.714l-277.714 277.143-277.714-277.143c-13.714-14.478-30.857-21.714-51.429-21.714s-37.714 7.237-51.429 21.714l-42.857 42.857c-14.475 13.714-21.714 30.857-21.714 51.429 0 20.192 7.239 37.522 21.714 52l372 372c14.096 14.096 31.239 21.143 51.429 21.143 19.808 0 37.143-7.047 52-21.143l371.429-372c14.475-14.478 21.714-31.808 21.714-52z" />
<glyph unicode="&#xe694;" glyph-name="close" d="M512-73.143c-69.333 0-135.667 13.5-199 40.5s-117.833 63.333-163.5 109-82 100.167-109 163.5-40.5 129.667-40.5 199 13.5 135.667 40.5 199 63.333 117.833 109 163.5 100.167 82 163.5 109c63.333 27 129.667 40.5 199 40.5s135.667-13.5 199-40.5 117.833-63.333 163.5-109 82-100.167 109-163.5 40.5-129.667 40.5-199-13.5-135.667-40.5-199-63.333-117.833-109-163.5-100.167-82-163.5-109-129.667-40.5-199-40.5zM759 596.857c6 6.667 9 14.333 9 23s-3 16-9 22l-44 44c-6.667 6-14.167 9-22.5 9s-15.833-3-22.5-9l-158-159-159 159c-6 6-13.333 9-22 9s-16-3-22-9l-44-44c-6-6-9-13.333-9-22s3-16.333 9-23l158-158-158-158c-6-6.667-9-14.333-9-23s3-16 9-22l44-44c6-6 13.333-9 22-9s16 3 22 9l159 159 158-159c6.667-6 14.167-9 22.5-9s15.833 3 22.5 9l44 44c6 6 9 13.333 9 22s-3 16.333-9 23l-159 158 159 158z" />
<glyph unicode="&#xe695;" glyph-name="close2" d="M838.251 219.047l-77.579-77.577c-10.775-10.775-23.705-16.165-38.791-16.162s-28.014 5.385-38.791 16.162l-168.089 168.089-168.089-168.089c-10.773-10.775-23.707-16.162-38.789-16.162-15.083 0-28.016 5.387-38.791 16.162l-77.579 77.579c-10.775 10.775-16.162 23.705-16.162 38.789 0 15.086 5.387 28.016 16.162 38.791l168.089 168.089-168.089 168.091c-10.775 10.775-16.162 23.705-16.162 38.789s5.387 28.016 16.162 38.791l77.579 77.579c10.775 10.775 23.705 16.162 38.791 16.162 15.083 0 28.014-5.387 38.789-16.162l168.089-168.091 168.089 168.091c10.775 10.775 23.705 16.162 38.791 16.162s28.016-5.387 38.791-16.162l77.579-77.579c10.773-10.773 16.162-23.707 16.16-38.791 0-15.083-5.385-28.014-16.16-38.789l-168.089-168.091 168.089-168.089c10.775-10.775 16.16-23.703 16.16-38.791 0.005-15.086-5.385-28.014-16.16-38.791z" />
<glyph unicode="&#xe696;" glyph-name="cog" d="M933.79 340.607c-53.726 93.054-21.416 212.304 72.152 266.488l-100.626 174.292c-28.75-16.854-62.176-26.518-97.846-26.518-107.536 0-194.708 87.746-194.708 195.99h-201.258c0.266-33.41-8.074-67.282-25.958-98.252-53.724-93.056-173.156-124.702-266.862-70.758l-100.624-174.292c28.97-16.472 54.050-40.588 71.886-71.478 53.638-92.908 21.512-211.92-71.708-266.224l100.626-174.292c28.65 16.696 61.916 26.254 97.4 26.254 107.196 0 194.144-87.192 194.7-194.958h201.254c-0.086 33.074 8.272 66.57 25.966 97.218 53.636 92.906 172.776 124.594 266.414 71.012l100.626 174.29c-28.78 16.466-53.692 40.498-71.434 71.228zM512 231.525c-114.508 0-207.336 92.824-207.336 207.334 0 114.508 92.826 207.334 207.336 207.334s207.332-92.826 207.332-207.334c-0.002-114.51-92.824-207.334-207.332-207.334z" />
<glyph unicode="&#xe697;" glyph-name="collapse-horizontal" d="M472.315 438.857l-294.156-294.156v226.274h-177.017v135.764h177.018v226.274l294.155-294.156zM1024 370.975h-181.16v-226.274l-294.156 294.156 294.156 294.156v-226.274h181.16v-135.764z" />
<glyph unicode="&#xe698;" glyph-name="comments" d="M967.111 92.932c0-40.444 23.136-75.474 56.889-92.608v-14.167c-9.445-1.294-19.086-1.977-28.889-1.977-60.452 0-114.976 25.358-153.531 66.012-23.308-6.206-48.002-9.557-73.58-9.557-141.385 0-256 101.881-256 227.556 0 125.673 114.615 227.556 256 227.556s256-101.883 256-227.556c0-49.198-17.568-94.748-47.428-131.97-6.066-13.179-9.461-27.833-9.461-43.289v0zM455.111 893.968c247.518 0 448.882-160.546 454.965-360.462-43.717 19.484-92.076 29.796-142.076 29.796-84.942 0-165.17-29.73-225.9-83.714-62.974-55.975-97.655-131.054-97.655-211.397 0-39.708 8.484-78.121 24.654-113.591-4.647-0.11-9.305-0.187-13.988-0.187-24.139 0-47.831 1.541-70.955 4.482-97.758-97.756-214.444-115.287-327.268-117.861v23.925c60.921 29.847 113.778 84.213 113.778 146.343 0 8.67-0.674 17.182-1.924 25.508-102.93 67.79-168.743 171.337-168.743 287.381 0 204.222 203.76 369.778 455.111 369.778z" />
<glyph unicode="&#xe699;" glyph-name="compress-diagonal" d="M438.857 402.286v-256q0-14.857-10.857-25.714t-25.714-10.857-25.714 10.857l-82.286 82.286-189.714-189.714q-5.714-5.714-13.143-5.714t-13.143 5.714l-65.143 65.143q-5.714 5.714-5.714 13.143t5.714 13.143l189.714 189.714-82.286 82.286q-10.857 10.857-10.857 25.714t10.857 25.714 25.714 10.857h256q14.857 0 25.714-10.857t10.857-25.714zM870.286 786.286q0-7.429-5.714-13.143l-189.714-189.714 82.286-82.286q10.857-10.857 10.857-25.714t-10.857-25.714-25.714-10.857h-256q-14.857 0-25.714 10.857t-10.857 25.714v256q0 14.857 10.857 25.714t25.714 10.857 25.714-10.857l82.286-82.286 189.714 189.714q5.714 5.714 13.143 5.714t13.143-5.714l65.143-65.143q5.714-5.714 5.714-13.143z" />
<glyph unicode="&#xe69a;" glyph-name="copy" d="M832 694.857h-192v64l-192 192h-448v-768h384v-256h640v576l-192 192zM832 604.347l101.49-101.49h-101.49v101.49zM448 860.347l101.49-101.49h-101.49v101.49zM64 886.857h320v-192h192v-448h-512v640zM960-9.143h-512v192h192v448h128v-192h192v-448z" />
</font>
</defs>
</svg>
